<svg width="27" height="24" viewBox="0 0 27 24" fill="none" xmlns="http://www.w3.org/2000/svg">
<path fill-rule="evenodd" clip-rule="evenodd" d="M24.1409 15.677V2.02002H2.41417V21.98H24.1409V15.716L24.1616 15.692L24.1409 15.677ZM23.0731 15.597C22.8869 15.627 22.6812 15.642 22.5832 15.656C22.4518 15.6792 22.3186 15.6926 22.1848 15.696C21.8637 15.696 21.4338 15.349 21.1486 15.119C21.0554 15.011 20.9829 14.8893 20.9341 14.759C20.7872 14.446 20.5412 13.92 19.887 13.92C19.4916 13.9216 19.1111 14.0581 18.8192 14.303C18.7037 14.4175 18.5427 14.4842 18.3729 14.488C18.2888 14.4737 18.2079 14.4467 18.1334 14.408C17.9286 14.3074 17.7015 14.251 17.4694 14.243C16.8852 14.1892 16.3622 14.5762 16.2949 15.112V15.807C16.2949 15.897 16.2448 15.957 16.0598 16.127C15.742 16.3691 15.5503 16.7232 15.5318 17.102C15.5578 17.3598 15.6856 17.5999 15.8911 17.777C15.927 17.815 15.977 17.87 16.001 17.874C15.8597 17.9403 15.7097 17.9897 15.5547 18.021C15.1084 18.134 14.3617 18.323 14.3617 19.075C14.3827 19.3267 14.4954 19.5645 14.6817 19.75L14.7688 19.857C14.7209 19.971 14.6295 20.16 14.5326 20.362C14.4281 20.583 14.3214 20.812 14.2387 21H11.5424V20.976C11.5531 20.716 11.6159 20.4601 11.7275 20.221L11.7797 20.081C11.9004 19.7861 11.9641 19.4741 11.968 19.159C11.968 18.354 11.0864 18.165 10.5595 18.052L10.0925 17.952C9.91838 17.633 10.0044 17.504 10.4518 17.093C10.8769 16.789 11.1451 16.3361 11.1919 15.843C11.2402 15.2863 10.8294 14.7838 10.234 14.671C9.94018 14.6411 9.64299 14.685 9.37412 14.798C9.25147 14.8513 9.11789 14.8799 8.98226 14.882C8.9273 14.8844 8.87279 14.8719 8.82551 14.846C8.83965 14.688 8.89898 14.5362 8.9975 14.406C9.17894 14.1419 9.2804 13.8382 9.2914 13.526C9.28782 13.3353 9.25633 13.146 9.19778 12.963C9.16137 12.8564 9.14086 12.7457 9.13683 12.634C9.11901 12.4186 9.29056 12.2292 9.52434 12.206C9.68217 12.206 9.77252 12.315 10.0163 12.715C10.2945 13.1623 10.8289 13.4218 11.3879 13.381C12.4285 13.381 13.0936 12.305 13.0936 11.565C13.0936 11.46 13.1741 11.35 13.2503 11.35C13.3352 11.35 13.4092 11.395 13.5682 11.506C13.824 11.7152 14.1511 11.8361 14.4934 11.848C15.1004 11.8131 15.6275 11.4517 15.8366 10.927C15.9417 10.7042 16.1092 10.5109 16.3221 10.367C17.1812 9.83891 17.5207 8.83052 17.1363 7.94902C17.1864 7.87402 17.2996 7.76502 17.2898 7.74902C17.6639 7.8063 18.0454 7.69594 18.3163 7.45202C18.5576 7.13391 18.6206 6.72955 18.4861 6.36202C18.4628 6.27573 18.4529 6.18685 18.4567 6.09802C18.529 5.98833 18.6254 5.89366 18.7397 5.82002C19.1164 5.58748 19.3537 5.20713 19.3819 4.79102C19.3738 4.54 19.291 4.29583 19.1424 4.08502C19.0817 4.01033 19.0431 3.92248 19.0303 3.83002C19.0303 3.77902 19.1403 3.45702 20.0328 3.01202L20.059 3.00002H23.0731V15.597ZM3.47982 3.00002H18.4022C18.1709 3.22544 18.0367 3.52042 18.0245 3.83002C18.0322 4.08249 18.1155 4.32814 18.2651 4.54002C18.3248 4.61361 18.363 4.70002 18.3761 4.79102C18.3761 4.87602 18.3065 4.94402 18.0866 5.11702C17.8258 5.29117 17.6236 5.52925 17.5031 5.80402C17.4636 5.91471 17.4438 6.03053 17.4444 6.14702C17.4496 6.2776 17.4679 6.40747 17.4988 6.53502C17.5184 6.63302 17.5576 6.81502 17.5968 6.81502C17.5195 6.83483 17.4385 6.83859 17.3595 6.82602C17.0003 6.84455 16.6672 7.00412 16.4451 7.26402C16.1968 7.49085 16.0868 7.81583 16.1512 8.13202C16.3156 8.87402 16.3156 9.32002 15.8442 9.55302C15.4581 9.77376 15.1508 10.0936 14.9604 10.473C14.7274 10.853 14.6523 10.924 14.4934 10.924C14.4074 10.924 14.3345 10.879 14.1745 10.768C13.9192 10.5586 13.5923 10.4377 13.2503 10.426C12.5874 10.4467 12.0676 10.956 12.0878 11.565C12.0878 11.863 11.7852 12.457 11.3868 12.457C11.0102 12.457 10.9361 12.333 10.8806 12.241C10.6731 11.704 10.1425 11.3284 9.52434 11.281C8.73369 11.3028 8.11091 11.9076 8.13104 12.634C8.13462 12.8247 8.1661 13.0141 8.22465 13.197C8.261 13.3033 8.2815 13.4137 8.28561 13.525C8.27147 13.683 8.21214 13.8348 8.11362 13.965C7.93194 14.2294 7.83048 14.5335 7.81973 14.846C7.85484 15.4049 8.37366 15.8333 8.98226 15.806C9.24252 15.8043 9.49976 15.7547 9.73877 15.66C9.84833 15.6098 9.96808 15.5812 10.0904 15.576H10.098C10.1542 15.6555 10.1844 15.7482 10.1851 15.843C10.1851 16.019 10.0174 16.186 9.74204 16.439C9.06175 16.8663 8.82738 17.6883 9.19234 18.367C9.45836 18.7073 9.87502 18.9216 10.3298 18.952C10.5301 18.994 10.9013 19.073 10.9612 19.159C10.9574 19.3715 10.9128 19.5817 10.8295 19.78L10.7794 19.91C10.628 20.2487 10.5457 20.61 10.5367 20.976V21H3.47982V3.00002ZM15.3283 21L15.4556 20.732C15.7539 20.102 15.7931 20.016 15.7931 19.842C15.7723 19.5974 15.6618 19.3665 15.4796 19.187C15.4382 19.137 15.3849 19.057 15.362 19.07C15.5049 18.9951 15.66 18.9417 15.8214 18.912C16.2394 18.806 17.0166 18.61 17.0166 17.855C16.9905 17.5954 16.862 17.3536 16.6552 17.175C16.6073 17.125 16.5387 17.054 16.5376 17.102C16.5376 17.01 16.5877 16.95 16.7738 16.779C17.0909 16.5378 17.2822 16.1848 17.3007 15.807V15.198C17.4388 15.1592 17.5883 15.1771 17.711 15.247C17.9149 15.348 18.1414 15.4045 18.3729 15.412C18.7684 15.4107 19.1493 15.2746 19.4418 15.03C19.5504 14.927 19.6904 14.8565 19.8434 14.828C19.9125 14.9197 19.9685 15.0192 20.01 15.124C20.1096 15.3839 20.2723 15.6195 20.4857 15.813C20.9306 16.258 21.5324 16.5442 22.1848 16.621C22.3711 16.6167 22.5566 16.5993 22.74 16.569C22.8502 16.552 22.9614 16.5407 23.0731 16.535V21H15.3283ZM11.6437 5.50002C11.6437 4.94773 12.131 4.50002 12.7322 4.50002C13.3334 4.50002 13.8207 4.94773 13.8207 5.50002C13.8207 6.0523 13.3334 6.50002 12.7322 6.50002C12.131 6.50002 11.6437 6.0523 11.6437 5.50002ZM7.28962 9.50002C6.68845 9.50002 6.20111 9.0523 6.20111 8.50002C6.20111 7.94773 6.68845 7.50002 7.28962 7.50002C7.89079 7.50002 8.37813 7.94773 8.37813 8.50002C8.37813 9.0523 7.89079 9.50002 7.28962 9.50002ZM20.3518 18.5C20.3518 19.0523 19.8644 19.5 19.2633 19.5C18.6621 19.5 18.1748 19.0523 18.1748 18.5C18.1748 17.9477 18.6621 17.5 19.2633 17.5C19.8644 17.5 20.3518 17.9477 20.3518 18.5Z" fill="#71767a"/>
</svg>
