<svg width="36" height="24" viewBox="0 0 36 24" fill="none" xmlns="http://www.w3.org/2000/svg">
  <path fillRule="evenodd" clipRule="evenodd" d="M0.781107 12.6976C0.273221 14.3565 0 16.1175 0 17.942C0 19.7666 0.273222 21.5275 0.781107 23.1864L7.8369 21.0401C7.53964 20.0691 7.37704 19.0312 7.37704 17.942C7.37704 16.8528 7.53964 15.8149 7.8369 14.8439L0.781107 12.6976Z" fill="#D5E3F6"/>
  <path d="M13.0157 8.5875C11.1498 9.57893 9.61038 11.1134 8.61575 12.9733L2.1058 9.51444C3.78945 6.366 6.38707 3.77675 9.54568 2.09851L13.0157 8.5875Z" fill="#95B8E9"/>
  <path d="M21.1079 7.81167C20.1338 7.51537 19.0925 7.35329 17.9998 7.35329C16.9071 7.35329 15.8658 7.51537 14.8917 7.81167L12.7385 0.778592C14.4027 0.272342 16.1693 0 17.9998 0C19.8302 0 21.5968 0.272342 23.2611 0.778592L21.1079 7.81167Z" fill="#558DDD"/>
  <path d="M27.385 12.9733C26.3904 11.1134 24.851 9.57893 22.985 8.5875L26.4551 2.09851C29.6137 3.77675 32.2113 6.36601 33.8949 9.51444L27.385 12.9733Z" fill="#2765BF"/>
  <path d="M28.1631 21.0401C28.4604 20.0691 28.623 19.0312 28.623 17.942C28.623 16.8528 28.4604 15.8149 28.1631 14.8439L35.2189 12.6976C35.7268 14.3565 36 16.1175 36 17.942C36 19.7666 35.7268 21.5275 35.2189 23.1864L28.1631 21.0401Z" fill="#1A4480"/>
</svg>
