<svg width="24" height="13" viewBox="0 0 24 13" fill="none" xmlns="http://www.w3.org/2000/svg">
<path fill-rule="evenodd" clip-rule="evenodd" d="M19.8 0.799835V2.79983H21.8L19.8 0.799835ZM20.107 4.90784C21.7197 6.84222 22.602 9.2814 22.6 11.7998H17.6C17.6 10.6078 17.2304 9.44505 16.542 8.47184L15.822 9.19183C16.5206 10.2558 16.762 11.556 16.492 12.7998H23.55C23.577 12.4698 23.6 12.1378 23.6 11.7998C23.6027 9.01577 22.6164 6.32126 20.817 4.19684L20.107 4.90784ZM14.45 7.73584L14.408 7.77783C12.7816 6.71645 10.6753 6.74214 9.0753 7.84286C7.47529 8.94359 6.69825 10.9015 7.108 12.7998H0.0500006C0.019312 12.4674 0.00263056 12.1337 5.87118e-07 11.7998C-0.00143177 7.24637 2.61808 3.09869 6.73028 1.14323C10.8425 -0.812227 15.713 -0.226227 19.244 2.64884L19.276 2.61684L19.983 3.32384L15.011 8.29584L14.45 7.73584ZM6 11.7998C5.99998 10.6795 6.32665 9.5834 6.94 8.64583L3.365 5.07283C1.83357 6.9804 0.999229 9.3536 1 11.7998H6ZM11.8 5.99984C12.9204 5.99982 14.0164 6.32648 14.954 6.93984L18.527 3.36584C14.1774 -0.123688 7.88196 0.290506 4.027 4.31984L7.561 7.85384C8.65417 6.67249 10.1905 6.00056 11.8 5.99984Z" fill="#162E51"/>
</svg>
