<svg width="1421" height="343" viewBox="0 0 1421 343" fill="none" xmlns="http://www.w3.org/2000/svg">
<g clip-path="url(#clip0_841_2)">
<path d="M333.22 173.002H301.777C301.777 98.7383 241.353 38.3159 167.095 38.3159C92.8247 38.3159 32.4048 98.7383 32.4048 173.002C32.4048 247.272 92.8247 307.697 167.095 307.697L194.352 324.362L167.095 339.145C122.714 339.145 80.9893 321.862 49.6162 290.486C18.2388 259.108 0.957031 217.383 0.957031 173.002C0.957031 128.625 18.2388 86.9028 49.6162 55.5278C80.9893 24.1547 122.706 6.87305 167.095 6.87305C211.475 6.87305 253.192 24.1547 284.565 55.5278C315.938 86.9028 333.22 128.625 333.22 173.002Z" fill="#2C5984"/>
<path d="M219.59 288.293V296.067C219.59 299.421 222.319 302.149 225.671 302.149H230.435C231.718 302.149 233.211 303.315 233.7 304.69C234.163 305.969 234.691 307.244 235.289 308.475C235.918 309.784 235.687 311.662 234.774 312.569L231.39 315.953C229.02 318.329 229.02 322.192 231.39 324.567L236.891 330.059C238.04 331.212 239.563 331.841 241.191 331.841C242.815 331.841 244.339 331.212 245.491 330.059L248.875 326.676C249.421 326.134 250.333 325.807 251.302 325.807C251.901 325.807 252.49 325.934 252.979 326.165C254.21 326.759 255.476 327.291 256.755 327.746C258.13 328.239 259.305 329.735 259.305 331.02V335.778C259.305 339.14 262.029 341.864 265.386 341.864H273.157C276.514 341.864 279.243 339.14 279.243 335.778V331.02C279.243 329.735 280.404 328.239 281.784 327.746C283.067 327.291 284.333 326.759 285.564 326.165C286.053 325.93 286.63 325.807 287.232 325.807C288.21 325.807 289.118 326.131 289.659 326.676L293.047 330.059C294.2 331.212 295.728 331.841 297.352 331.841C298.976 331.841 300.495 331.212 301.648 330.059L307.153 324.559C309.523 322.184 309.523 318.329 307.153 315.953L303.77 312.569C302.857 311.653 302.617 309.784 303.258 308.475C303.852 307.24 304.381 305.969 304.835 304.69C305.324 303.315 306.825 302.149 308.117 302.149H312.872C316.225 302.149 318.953 299.421 318.953 296.063V288.288C318.953 284.939 316.225 282.207 312.872 282.207H308.117C306.825 282.207 305.332 281.041 304.835 279.662C304.381 278.391 303.852 277.112 303.258 275.885C302.617 274.576 302.857 272.698 303.77 271.786L307.153 268.407C308.301 267.255 308.934 265.727 308.934 264.103C308.934 262.478 308.301 260.946 307.153 259.798L301.648 254.301C300.503 253.153 298.976 252.52 297.352 252.52C295.728 252.52 294.2 253.153 293.047 254.301L289.664 257.681C289.123 258.23 288.21 258.549 287.241 258.549C286.639 258.549 286.044 258.428 285.573 258.191C284.333 257.598 283.067 257.064 281.784 256.611C280.404 256.122 279.243 254.629 279.243 253.337V248.578C279.243 245.226 276.514 242.492 273.157 242.492H265.386C262.029 242.492 259.305 245.226 259.305 248.578V253.337C259.305 254.62 258.139 256.122 256.755 256.611C255.476 257.064 254.201 257.598 252.97 258.199C252.49 258.432 251.905 258.558 251.298 258.558C250.324 258.558 249.421 258.23 248.875 257.689L245.491 254.306C244.339 253.153 242.815 252.52 241.191 252.52C239.563 252.52 238.04 253.153 236.891 254.306L231.39 259.798C229.02 262.173 229.02 266.032 231.39 268.407L234.774 271.786C235.69 272.698 235.926 274.571 235.289 275.885C234.695 277.112 234.163 278.391 233.705 279.662C233.215 281.041 231.718 282.207 230.435 282.207H225.671C222.323 282.207 219.59 284.935 219.59 288.293ZM269.272 274.353C279.099 274.353 287.097 282.347 287.097 292.183C287.097 302.01 279.099 310.003 269.272 310.003C259.444 310.003 251.442 302.01 251.442 292.183C251.442 282.347 259.444 274.353 269.272 274.353Z" fill="#2C5984"/>
<path d="M293.144 233.195C293.306 233.545 293.223 234.068 293.074 234.213L291.149 236.142C289.354 237.935 289.354 240.865 291.149 242.668L294.275 245.795C295.152 246.668 296.309 247.148 297.536 247.148C298.771 247.148 299.937 246.668 300.801 245.795L302.731 243.869C302.801 243.808 302.993 243.708 303.299 243.708C303.46 243.708 303.626 243.742 303.744 243.8C304.482 244.157 305.25 244.48 306.015 244.747C306.381 244.882 306.695 245.323 306.695 245.523V248.239C306.695 250.784 308.769 252.85 311.305 252.85H315.732C318.286 252.85 320.355 250.784 320.355 248.239V245.523C320.355 245.323 320.661 244.878 321.036 244.747C321.801 244.48 322.56 244.157 323.302 243.8C323.425 243.742 323.582 243.708 323.757 243.708C324.044 243.708 324.25 243.808 324.311 243.865L326.241 245.795C327.114 246.668 328.27 247.148 329.501 247.148C330.737 247.148 331.894 246.668 332.771 245.795L335.902 242.668C336.77 241.796 337.25 240.639 337.25 239.403C337.25 238.172 336.77 237.012 335.902 236.142L333.977 234.208C333.828 234.068 333.736 233.545 333.907 233.195C334.26 232.462 334.579 231.694 334.853 230.925C334.98 230.562 335.421 230.252 335.631 230.252H338.347C340.887 230.252 342.957 228.175 342.957 225.634V221.207C342.957 218.662 340.887 216.588 338.347 216.588H335.631C335.421 216.588 334.98 216.282 334.853 215.912C334.579 215.143 334.26 214.375 333.907 213.641C333.736 213.297 333.828 212.777 333.977 212.633L335.902 210.703C337.696 208.904 337.696 205.971 335.902 204.172L332.771 201.047C331.894 200.173 330.742 199.693 329.501 199.693C328.27 199.693 327.114 200.173 326.241 201.047L324.311 202.976C324.25 203.037 324.044 203.124 323.757 203.124C323.582 203.124 323.425 203.094 323.302 203.037C322.569 202.684 321.805 202.364 321.036 202.095C320.661 201.959 320.355 201.518 320.355 201.316V198.601C320.355 196.06 318.286 193.992 315.732 193.992H311.305C308.769 193.992 306.695 196.06 306.695 198.601V201.316C306.695 201.518 306.381 201.959 306.015 202.095C305.25 202.364 304.482 202.684 303.744 203.037C303.626 203.098 303.46 203.133 303.299 203.133C302.993 203.133 302.801 203.037 302.731 202.976L300.81 201.047C299.937 200.173 298.771 199.693 297.536 199.693C296.309 199.693 295.152 200.173 294.275 201.047L291.149 204.172C289.354 205.971 289.354 208.899 291.149 210.703L293.074 212.633C293.223 212.777 293.306 213.297 293.144 213.641C292.786 214.375 292.467 215.143 292.192 215.912C292.061 216.278 291.621 216.588 291.415 216.588H288.708C286.164 216.588 284.094 218.657 284.094 221.207V225.63C284.094 228.175 286.164 230.248 288.708 230.248H291.415C291.621 230.248 292.061 230.562 292.197 230.925C292.467 231.694 292.786 232.462 293.144 233.195ZM313.519 214.428C318.483 214.428 322.517 218.461 322.517 223.421C322.517 228.38 318.483 232.414 313.519 232.414C308.573 232.414 304.53 228.38 304.53 223.421C304.53 218.461 308.573 214.428 313.519 214.428Z" fill="#2C5984"/>
<path d="M249.253 159.558L250.715 159.192L252.361 158.096L252.178 159.924L251.63 160.472H248.703L247.789 159.741L247.972 158.461L249.253 159.558Z" fill="#A5AFB7"/>
<path d="M248.888 150.229L247.973 150.778L245.413 151.144L243.035 150.596L243.583 150.046L246.145 149.498L248.521 149.681L248.888 150.229Z" fill="#A5AFB7"/>
<path d="M123.43 164.129H122.332L119.588 161.568L119.406 160.288L117.943 158.643V157.545L116.297 156.265V154.436L116.663 153.703L118.309 155.167L119.224 156.082L120.87 156.996L121.235 158.276L121.601 160.104L123.247 162.118L123.43 164.129Z" fill="#A5AFB7"/>
<path d="M255.288 139.987L255.655 143.098L256.202 141.452L257.484 141.269L257.667 142.732L259.496 142.366L259.678 141.269L261.69 140.902L262.605 143.28L263.336 142L264.434 143.28L266.079 144.56L266.994 147.486L266.262 148.034L264.982 148.401L263.885 145.841H263.153L262.787 149.681L261.873 150.229L262.239 148.034L260.228 148.584L258.58 149.864L255.472 151.875L254.742 151.326L255.107 149.681L254.009 149.316L254.374 146.755L253.277 141.269V138.89L254.009 137.062L254.742 136.695L254.924 137.61L255.288 139.987Z" fill="#A5AFB7"/>
<path d="M113.553 140.718L115.198 141.268L113.004 144.376L113.553 147.302L112.822 147.119L112.455 145.291V143.645L112.09 142.182L112.272 140.901L113.004 139.986L113.553 140.718Z" fill="#A5AFB7"/>
<path d="M91.6073 113.65L89.7773 113.467V112.187L90.6928 110.906L92.521 111.089L93.2529 111.272L93.8026 112.187L93.619 113.284L91.6073 113.65Z" fill="#A5AFB7"/>
<path d="M87.4024 93.7149L86.6719 93.3487V92.253L87.0362 91.1543L88.1334 91.8867L88.316 92.9824L87.4024 93.7149Z" fill="#A5AFB7"/>
<path d="M203.897 123.344V125.173L203.165 124.99L202.434 124.258V123.893L202.8 122.978L203.348 122.795L203.897 123.344Z" fill="#A5AFB7"/>
<path d="M199.692 122.612L198.412 124.808H197.315L196.766 124.076L197.497 122.43L199.509 122.064L199.692 122.612Z" fill="#A5AFB7"/>
<path d="M192.742 114.564L193.29 115.845L193.84 115.297L194.753 116.029L196.582 116.577L198.411 117.309L198.959 118.589L199.874 118.223L201.154 118.956L200.24 120.234L197.862 120.052L196.765 118.772L195.85 120.784L194.204 122.795L193.29 120.966L191.461 121.699L192.375 119.87L192.011 117.492L191.644 114.564H192.742Z" fill="#A5AFB7"/>
<path d="M202.616 107.25L201.519 107.798L200.605 106.335L200.422 104.69L201.336 103.957L202.434 104.507L202.983 105.604L203.165 106.153L202.616 107.25Z" fill="#A5AFB7"/>
<path d="M177.93 105.788L177.382 106.884L175.735 105.969L174.821 106.335L173.176 105.055L174.09 104.141L175.004 102.678L176.102 103.591L176.832 104.141L177.199 104.69L177.93 105.788Z" fill="#A5AFB7"/>
<path d="M205.178 277.34L204.264 276.792L202.617 276.607L200.606 276.792L199.142 276.426L197.497 275.512L193.84 272.766L192.193 272.034L189.633 271.485L187.804 271.853L185.427 273.132L183.781 273.315L181.586 272.766L179.209 272.219L176.282 271.12L173.905 270.754L170.43 269.475L167.687 268.011L166.956 267.28L165.309 267.098L162.018 266.001L160.737 264.72L157.628 262.893L156.165 260.88L155.434 259.416L156.531 259.233L156.165 258.316L156.897 257.77V256.673L155.983 255.208L155.799 254.113L154.886 252.468L152.325 249.357L149.399 246.796L148.119 244.784L145.741 243.137L145.192 242.406L145.924 240.578L144.461 239.664L142.815 238.018L142.448 235.823L140.803 235.272L139.34 233.446L138.243 231.799V230.7L136.962 228.141L136.231 225.765L136.414 224.484L134.585 222.838H133.67L132.391 221.738L131.659 222.838L132.026 224.484L131.842 226.86L132.756 228.324L134.402 230.7L134.768 231.617L135.317 231.799L135.499 233.078H136.048L136.414 235.09L137.145 236.006L137.512 237.104L139.157 238.933L139.888 242.042L140.62 243.321L141.352 244.968V246.431L142.815 246.796L143.913 248.259L144.826 249.722L144.644 250.271L143.363 251.187H142.815L142.267 249.175L140.438 247.345L138.425 245.515L136.962 244.602L137.328 242.406L137.145 240.578L135.866 239.479L134.036 237.836L133.488 238.2L132.939 237.286L131.293 236.189L129.831 234.178L130.014 233.81L131.293 234.36L132.391 233.446L132.756 231.983L130.744 229.421L129.282 228.324L128.551 226.131L127.818 223.935L127.087 221.192L126.355 218.081L126.173 216.436L124.893 214.241L123.796 213.693L123.613 212.596L122.149 212.047L121.417 211.133L119.224 210.033L118.673 209.485V207.656L117.028 203.815L115.932 198.878L116.297 198.145L115.382 196.866L114.286 193.757L114.65 191.014L113.919 189.004L115.199 186.625L115.747 183.881V181.32L117.579 178.578L119.771 173.091L120.687 168.884L120.87 165.957L120.687 164.311L121.235 163.764L123.796 165.775L123.978 169.067L124.71 168.335L125.076 165.775L125.258 163.031L124.893 162.849L122.149 158.643L121.235 156.813L118.491 154.252V151.143L119.406 149.315L117.76 147.119L118.491 144.559L117.394 141.633L118.125 139.986L117.76 138.522L116.847 136.877L117.579 134.135L116.847 130.843L117.579 127.733L116.297 127.002L114.103 125.721L113.005 123.893L112.091 119.503L111.177 118.223L109.714 115.845L107.885 114.931L106.603 112.005L106.056 109.992L104.593 109.444L103.312 111.456L102.582 111.089L100.751 110.541H99.1065L97.46 109.992L98.7408 108.346L101.301 106.518L103.129 106.701L103.312 105.787L100.935 105.969L98.7408 106.883L95.6309 107.249L95.2657 109.078L92.7051 109.811L90.6939 109.627L89.0479 109.261L87.7671 109.992L85.0249 109.444L83.7437 110.176L81.5493 109.811L81.1836 108.896L79.5376 108.346L77.8916 107.798L76.4283 107.433L74.2344 105.969L74.6011 105.42L76.6114 105.787L78.0747 106.335L80.2691 106.518L81.7325 107.616L83.1953 107.433L85.7549 107.616L86.4868 107.433H87.9492L89.9615 105.969L91.7906 105.054L89.9615 104.506L90.1455 103.774L88.8638 103.957L89.4141 102.31L88.315 102.677L89.23 101.213L87.4014 101.031L87.0352 100.3L88.315 99.0176L89.4141 98.4717L89.7784 97.0078L88.315 95.9097L89.0479 94.0811V92.8003L90.5108 91.7036L91.2422 90.0576L92.8882 89.3252L94.899 89.1436L96.545 88.5933L97.2764 89.1436V90.2383L99.1065 90.0576L99.2891 90.7891L100.751 90.9722L101.666 89.8745L101.85 88.9595H103.312L102.764 88.4116L101.666 87.8623L100.751 88.0459L100.935 86.7647L99.6553 85.668L99.4717 83.8394L100.385 82.7422L101.301 80.5469L103.129 81.0962L105.691 82.1939L106.238 82.9239L104.775 83.6563L106.238 85.4849L107.336 83.6563L107.702 81.8267L108.616 80.3638L109.164 78.7178L109.53 77.0718L111.177 76.7051L112.091 77.9864L114.103 78.1695L115.564 77.4385H117.394L118.125 77.8032L120.321 78.3516L120.687 79.084H122.881L123.247 80.5469L122.697 81.8267H123.43L124.344 82.9239L123.796 83.4732L124.344 84.753L125.258 85.1201L126.173 87.1294L127.27 88.5933L127.636 89.3252L129.099 89.6914L129.647 91.3384L130.378 92.253L131.476 93.8994L132.026 95.9097L132.756 96.6416L134.402 96.0923L136.048 95.9097L137.328 96.8242L139.523 96.2749H141.352V97.7388L142.448 97.3731L143.363 96.2749L143.913 96.8242L144.461 99.9336L146.655 98.4717L145.741 100.665H147.387L148.119 99.9336L149.216 100.481L150.495 102.127L152.691 103.774L153.97 104.689H155.251L156.349 106.518L154.336 107.798L156.349 108.712L159.641 108.896L160.737 108.53L161.834 110.541L163.298 109.078L162.383 107.798L163.298 106.701H164.76L165.675 106.518L166.59 107.433L167.687 109.078L168.967 108.896L171.162 110.358L172.991 109.811L174.819 109.992L174.637 107.98L175.733 107.433L177.562 108.346L177.747 111.272L178.477 108.896H179.391L179.756 105.787L178.294 103.957L176.831 102.859V99.5674L177.747 97.1895L179.209 97.5557L180.306 98.836L182.317 102.127L181.586 103.59L183.781 103.957L184.147 107.067L185.427 104.506L187.073 106.335L187.255 108.53L188.902 110.358L189.633 107.98L189.816 105.237L189.084 101.944H190.73H192.376L194.389 103.044L194.937 104.506L194.571 106.335L195.851 107.798L196.217 109.261L194.389 111.821L192.742 112.737L191.278 112.005V113.65L190.547 116.395V117.857L189.267 120.234L187.255 120.6L186.341 122.064L186.524 124.258L184.877 124.808L183.415 127.55L182.134 131.208L181.77 133.769L181.952 137.427L184.512 137.792L185.427 140.718L186.524 143.097L188.902 142.182L192.376 143.097L194.389 144.193L195.851 145.474L198.411 145.84L200.606 146.937L203.533 146.388L205.543 146.205L205.909 149.132L207.373 152.059L209.567 155.351L213.224 157.545L214.505 156.082V152.605L212.128 148.033L210.298 146.754L212.677 144.376L213.956 141.633L214.139 139.256L213.224 137.244L211.213 135.049L208.47 133.22L209.201 129.562L207.556 127.002L205.361 122.43L206.092 121.332H208.836L210.298 121.149L211.213 120.051L212.859 120.6L215.42 121.515L216.334 122.612L218.895 121.699L219.991 124.258L222.369 127.733L223.833 127.55L225.842 128.83L226.941 126.086L226.575 122.43L226.759 120.6L229.136 122.612L233.159 125.172L236.635 127.55L237.183 129.745L240.109 130.111L242.304 130.843L245.045 130.111L246.51 130.477L248.521 132.305L249.801 131.94L251.08 132.488L253.276 135.598L252.911 137.244L252.361 139.072L250.533 141.633L249.984 145.291L247.424 147.302L243.583 148.766L241.023 150.045L239.194 151.143L238.829 154.069L236.999 156.447L236.085 161.568L234.987 165.411L236.451 164.129L237.73 158.825L240.475 154.619L243.035 152.972L245.229 153.521L244.498 156.447L246.691 159.374L248.338 161.204L251.264 161.384L254.19 159.19V154.984L255.471 156.996L257.116 157.362L255.836 160.471L252.726 164.495L251.264 166.872L250.166 169.98L248.521 170.53L247.424 168.152L249.619 163.946L246.691 165.592L244.68 167.056L245.412 167.786L243.948 170.347L242.304 172.176L240.475 174.005L239.927 176.564V177.113L240.475 178.76L241.753 180.224L242.669 179.857L241.938 178.76L242.852 179.31L243.035 180.224L241.753 181.32L240.656 181.686L239.377 182.784L238.462 183.333L237.183 184.062L235.72 185.527L238.645 183.698L239.56 184.062L236.816 186.258L235.353 186.625V186.258L234.805 187.356H235.537L235.72 189.736L234.805 192.66L234.439 191.927H233.891L232.793 191.379L233.708 192.844L234.439 193.208L234.805 194.488L234.439 195.953L233.708 198.878L233.524 198.695L233.708 196.318L232.245 195.585L231.331 193.208L231.148 194.673L232.245 196.501H230.599L232.427 196.866L233.159 199.793H233.891L234.439 200.705L235.537 203.815L234.622 206.56L232.245 208.206L230.965 210.584L229.867 211.133L228.769 212.596L228.586 213.693L226.209 216.619L224.929 218.449L224.197 220.46L224.015 222.838L224.929 224.848L226.209 227.227L227.856 229.056L228.039 230.336L229.867 233.446L230.232 235.458V236.738L229.867 238.75L229.136 239.298H227.672L226.941 238.018L225.842 237.649L224.015 235.458L222.369 233.446L221.821 232.348L222.002 230.153L221.088 228.691L218.529 226.678L217.431 226.314L214.871 228.324H214.321L212.859 227.044L211.03 226.678L207.922 227.59H205.361L203.349 228.141L202.251 228.691L202.801 229.603V230.884L203.533 231.251L202.984 231.799L201.886 231.432L200.972 232.165L198.96 232.348L196.583 231.068L194.204 231.617L192.193 231.068L190.365 231.432L187.988 232.348L185.609 234.908L182.683 236.372L181.22 237.836L180.671 239.298V241.31L180.854 242.771L181.403 243.869L180.306 246.431L179.756 248.624L179.574 252.649L179.391 254.113L179.939 255.758L180.854 257.038L181.586 259.416L183.598 261.426L184.33 263.075L185.609 264.353L188.902 264.902L190.181 266.001L192.925 265.086L195.303 264.536L197.497 263.804L199.508 263.075L201.337 261.792L201.886 259.965L202.069 257.586L202.435 256.673L204.447 255.575L207.556 254.478L210.298 254.113L211.945 253.564L212.859 254.113V255.395L211.395 257.404L210.848 259.233L211.395 259.782L211.03 261.062L210.481 263.439L209.567 262.709L209.018 262.893V263.257H209.567V263.988L209.201 265.268L209.567 265.634L209.201 266.732L209.385 266.914L209.201 268.377L208.653 269.292L208.104 269.475L207.556 270.574L208.653 270.937L208.836 270.389L209.749 270.574L210.513 272.85L208.399 275.793L205.178 277.34Z" fill="#A5AFB7"/>
<path d="M159.64 92.6172L158.725 93.8994L161.102 93.3487L162.199 94.9951L163.479 93.7149L164.212 94.8135L164.577 97.7388L165.308 96.6416L164.942 93.5323L165.857 93.1665L166.772 93.7149L167.686 94.9951L168.052 97.9224L168.235 100.117L169.881 101.58L171.893 103.044L171.71 104.506L169.881 104.69L170.429 105.787L170.063 106.883L168.052 106.335L166.04 105.42H164.577L162.382 106.335H158.725H157.079L156.896 104.69L155.616 103.59L154.519 103.774L153.788 101.213L154.702 101.031L156.348 100.848L157.81 101.213L159.457 101.031L157.444 99.9336L155.25 99.751L153.788 99.3838L153.604 98.104L156.348 97.5557L154.702 97.1895L153.238 95.9097L154.885 94.0811L155.798 92.9824L158.908 91.8867L159.64 92.6172Z" fill="#A5AFB7"/>
<path d="M168.784 92.8012L167.686 94.6308L166.59 92.6181L166.956 92.0703H168.052L168.784 92.8012Z" fill="#A5AFB7"/>
<path d="M194.752 90.4229L195.301 91.1543L194.203 91.5215L193.289 91.7036L192.374 92.253H192.01L190.546 90.9722L190.18 90.0576L190.546 89.6914L192.741 89.5078L194.752 90.4229Z" fill="#A5AFB7"/>
<path d="M185.61 92.6182L186.707 94.2657L187.073 91.7046L188.902 90.0586L191.462 92.6182L192.012 94.6309L193.474 93.1675L193.841 91.8877L196.583 92.6182L198.412 93.5333L199.143 94.6309L200.607 93.3497L202.435 94.8145H205.362L206.824 95.5455L209.202 97.7398L208.104 99.752L211.579 100.482L213.591 100.118L216.7 101.763L218.346 101.032L219.443 103.227L219.626 107.251L217.432 106.884L214.139 105.055L212.859 106.153L213.591 107.799L215.786 108.897L218.163 109.262L219.078 109.812L221.455 112.188L222.187 114.383H220.357L215.968 113.651L219.078 115.298L221.272 116.212L222.002 117.126L217.979 117.675L214.322 117.309L211.946 116.396L212.129 115.479L209.568 114.748L207.008 114.017L207.373 114.748L203.898 116.396L202.435 115.846V113.285L204.812 112.554L207.19 111.273L206.276 110.359L206.093 108.897L206.276 105.421L205.362 104.324L204.448 103.591L202.069 102.678L199.509 102.495L199.875 101.581L198.046 100.118L196.95 100.301L195.851 99.5684L195.486 100.482L193.657 101.397L189.634 101.581L187.073 101.214L185.244 101.032L184.147 100.118L185.062 98.6539L183.598 98.837L182.684 95.9107L182.867 93.1675L183.598 91.7046L185.792 90.6075L185.61 92.6182Z" fill="#A5AFB7"/>
<path d="M172.624 91.7031L173.722 92.2525L175.367 91.8862L175.55 92.7998L174.819 94.2642L176.282 95.3609V98.1035L174.636 99.3833L173.722 99.0171L172.99 97.9219L170.43 95.544L170.613 94.6294L172.441 94.9946L171.527 93.166L172.624 91.7031Z" fill="#A5AFB7"/>
<path d="M179.575 94.6308L178.661 96.8251H177.563L176.831 94.2656L176.648 92.8012L177.016 91.5224L177.929 90.6074H179.757L181.586 91.1552L180.672 93.9003L179.575 94.6308Z" fill="#A5AFB7"/>
<path d="M152.141 96.0918L148.849 96.8237V95.3609L147.387 93.166L148.118 92.4346L149.947 90.4224L151.593 88.7774V86.9473L154.519 87.313L155.434 88.228L157.628 88.959L158.176 89.874L158.725 91.3379L157.263 91.8862L154.336 93.3482L152.508 94.9946L152.141 96.0918Z" fill="#A5AFB7"/>
<path d="M178.295 88.2295L177.929 89.3262L176.832 89.1446L175.734 88.4126L176.101 87.1304L177.198 86.2168L177.929 87.3145L178.295 88.2295Z" fill="#A5AFB7"/>
<path d="M174.089 83.291L174.638 84.5703L174.821 86.0342L174.455 88.2285L173.175 88.5933L172.261 88.0459V86.3994L170.98 86.5825V84.3872L171.712 84.5703L172.992 83.4732L174.089 83.6563V83.291Z" fill="#A5AFB7"/>
<path d="M166.591 84.5703L166.773 85.4849L167.504 85.1201L168.236 85.3018V86.7647L167.687 88.0459L164.761 88.2285L162.201 89.1436L160.92 88.9595L161.103 88.0459L163.115 87.1294L159.275 86.7647L158.359 86.0342L160.373 83.4732L161.287 82.9239L163.115 84.2041L164.213 86.0342L165.494 86.5825L164.943 83.6563L165.859 82.7422L166.591 83.107V84.5703Z" fill="#A5AFB7"/>
<path d="M176.833 82.1939L177.749 82.9239L179.211 82.7422L179.941 83.6563V84.753L181.04 85.3018L181.771 85.8506H182.869H183.965L185.064 85.1201L186.526 84.5703L187.99 84.3872L189.086 85.3018L189.818 86.3994L189.453 87.1294L188.538 88.0459H187.257L185.064 88.9595L183.234 89.3252L181.771 89.1436L179.393 88.4116L178.846 86.9478L178.663 85.4849L177.749 84.3872L176.102 84.022L175.188 83.291L175.37 82.0098L176.833 82.1939Z" fill="#A5AFB7"/>
<path d="M161.834 79.4512L160.919 81.6456L160.188 82.377H159.457L157.628 83.292H156.165L155.434 82.377L157.628 80.73L159.64 79.4512L160.736 79.6343L161.834 79.4512Z" fill="#A5AFB7"/>
<path d="M177.379 80.914H177.015H175.733L175.367 80.1821L176.83 80L177.379 80.5483V80.914Z" fill="#A5AFB7"/>
<path d="M165.859 79.9996L164.396 80.7299L163.664 79.6342L164.396 78.9019L165.494 78.7188L166.224 79.2681L165.859 79.9996Z" fill="#A5AFB7"/>
<path d="M166.774 77.6197L165.86 77.9864L164.762 77.8032L164.944 77.4385L165.677 76.7051L166.042 76.8892L166.774 77.6197Z" fill="#A5AFB7"/>
<path d="M175.734 79.4507L174.82 79.9991L174.271 79.4507L173.905 78.3521L173.723 77.2559H174.637L175.003 77.439L175.917 78.3521L175.734 79.4507Z" fill="#A5AFB7"/>
<path d="M172.99 78.7178L173.173 79.9986L172.075 79.6333L170.979 78.7178L169.516 78.5352L170.247 77.6197L169.516 76.8892L169.699 75.9746L170.796 76.3404L172.441 77.4385L172.99 78.7178Z" fill="#A5AFB7"/>
<path d="M180.49 74.3287L181.404 75.0611L180.855 76.1578L180.124 78.3521L179.027 78.7183L177.563 78.5357L176.832 77.439L176.649 76.3409L177.016 75.6089L175.918 75.7925L175.187 74.878L174.82 73.5977L175.003 72.3169L175.369 71.5855L175.918 71.2203L175.552 70.6719L176.649 70.4883L177.563 71.7686L178.662 72.3169L179.575 72.6831L180.49 74.3287Z" fill="#A5AFB7"/>
<path d="M184.696 63.1728L185.793 62.9892L186.708 62.8066L187.805 62.9892L188.354 63.7211V65.1845L187.805 66.0986V66.8305L188.719 66.2817V68.2929L188.537 69.2075L188.903 71.5854L188.172 72.5004V73.0488L186.526 73.9628H187.44L187.257 74.5117L188.537 75.6088L188.354 76.7055L187.805 77.8036V78.9013L187.257 79.999L187.622 80.5473L188.719 80.1811L189.085 80.913L187.805 82.9243L185.611 82.7426L183.599 83.6567L182.319 83.4736H180.855L180.49 82.1943L181.771 81.2792L180.855 79.2675L181.222 79.0844L183.416 79.999L181.954 78.352L180.855 77.9868L181.04 76.8896L181.954 75.975L181.771 75.061L180.673 74.1464L180.125 72.683H181.587L182.135 72.8661L182.685 71.5854H181.404L179.576 72.1347L178.479 71.4033L177.748 70.3061L177.017 69.5737L176.832 68.6591L177.381 68.1108L177.93 67.9277L178.662 67.3788L179.027 66.2817H179.576L180.125 67.0131L179.941 65.5497L180.308 65.0014L180.855 64.4536L181.954 64.0873L182.319 64.27L183.05 63.5385L183.782 63.3549L184.696 63.1728Z" fill="#A5AFB7"/>
<path d="M74.4531 233.4L73.6304 233.603L72.8149 232.057L72.8227 230.313L72.2144 227.839L72.5239 227.327L73.6582 226.616L73.354 225.379L73.665 224.865L74.1772 225.177L76.0205 227.345L76.7339 228.478L77.5508 230.023L78.6689 232.801L78.3599 233.316L76.1992 233.409L74.4531 233.4ZM72.856 221.574L71.4199 221.053L70.5015 219.094L70.2993 218.272L70.1992 217.865L70.6114 217.764L72.3516 219.518L73.6821 221.372L72.856 221.574ZM70.207 216.117L69.8945 216.625L67.2285 214.664L67.5391 214.146L70.207 216.117ZM65.8003 212.393L65.2871 212.088L63.6494 210.744L63.2436 209.094L63.144 208.686L64.3769 208.385L64.9917 209.103L65.8003 212.393ZM58.5439 202.396L58.1323 202.498L56.7031 200.232L57.1133 200.132L57.9375 199.93L59.0644 200.957L58.5439 202.396ZM183.962 168.519L184.511 170.165L185.242 170.713L186.705 170.896L188.9 171.079L191.095 171.993L192.741 171.262L195.666 171.809L196.215 171.626L198.044 170.53L200.239 171.262L202.616 172.176L204.446 172.908L206.274 173.639L206.64 174.555L207.371 174.735L207.188 175.102H207.736L208.103 174.555L208.468 175.285L209.017 175.834L209.566 175.649L209.931 176.018L209.748 176.564L212.492 177.478L213.589 180.406L214.504 182.967L214.32 184.978L213.589 186.991L213.406 188.27V188.637L213.772 189.004L214.504 189.367L215.235 189.187L217.43 186.809L219.807 185.709L222.368 183.333L222.185 182.967L221.819 182.054L221.271 181.504L222.185 180.771L224.379 180.224L226.392 179.492L226.758 178.029L226.94 177.662L228.402 174.735L229.135 173.821L232.425 172.725L236.084 171.262V170.347L236.633 169.98L237.364 169.067L237.546 167.422L237.181 164.861L237.729 161.934L238.644 162.484L239.742 161.384L241.022 161.751L242.668 165.957L244.679 167.056L245.411 167.786L243.947 170.347L242.302 172.176L240.473 174.005L240.107 176.383L239.925 177.113L240.473 178.76L241.752 180.224L242.668 179.857L241.937 178.76L242.851 179.31L243.033 180.224L241.752 181.32L240.655 181.686L239.376 182.784L238.46 183.333L237.181 184.062L235.718 185.527L238.644 183.698L239.558 184.062L236.815 186.258L235.352 186.625V186.258L234.804 187.356H235.536L235.718 189.736L234.804 192.66L234.438 191.927H233.889L232.792 191.379L233.707 192.844L234.438 193.208L234.804 194.488L234.438 195.953L233.707 198.878L233.523 198.695L233.707 196.318L232.244 195.585L231.329 193.208L231.147 194.673L232.244 196.501H230.415L232.425 196.866L233.158 199.793H233.889L234.438 200.705L235.536 203.815L234.62 206.56L232.244 208.206L230.963 210.584L229.866 211.133L228.768 212.596L228.585 213.693L226.208 216.619L224.928 218.449L224.196 220.46L224.014 222.838L224.928 224.848L226.208 227.227L227.855 229.056L228.037 230.336L229.866 233.446L230.231 235.458V236.738L229.866 238.75L229.135 239.298H227.671L226.94 238.018L225.841 237.649L224.014 235.458L222.368 233.446L221.819 232.348L222.001 230.153L221.086 228.691L218.528 226.678L217.43 226.314L214.87 228.324H214.32L212.675 227.044L211.029 226.678L207.92 227.59H205.36L203.348 228.141L202.25 228.873L202.799 229.603V230.884L203.531 231.251L202.982 231.799L201.884 231.432L200.971 232.165L198.959 232.348L196.581 231.068L194.203 231.617L192.191 231.068L190.363 231.432L187.986 232.348L185.608 234.908L182.682 236.372L181.219 237.836L180.67 239.298V241.31L180.853 242.771L181.401 243.869H180.305L178.109 243.321L175.732 242.406L175.001 240.944L174.269 238.933L172.623 237.104L171.71 235.272L170.246 233.262L168.234 231.983H165.857L164.027 234.36L161.651 233.262L160.371 232.165L159.639 230.52L158.724 228.873L157.262 227.411L155.798 226.314L154.884 225.032L150.129 224.666L149.946 225.946L147.752 225.58L142.265 224.848L136.412 221.738L132.573 219.545L132.938 218.996L129.463 218.629L126.354 218.081L126.171 216.436L124.891 214.241L123.794 213.693L123.611 212.596L122.148 212.047L121.416 211.133L119.222 210.033L118.672 209.485V207.656L117.027 203.815L115.93 198.878L116.295 198.145L115.381 196.866L114.284 193.757L114.649 191.014L113.918 189.004L115.198 186.625L115.746 183.881V181.32L117.577 178.578L118.672 175.834L119.77 173.091L120.685 168.884L120.868 165.957L120.685 164.311L121.233 163.764L123.794 165.775L123.976 169.067L124.709 168.335L125.074 165.775L125.256 163.031L130.926 164.677L136.961 166.141L138.974 166.507L145.374 167.786L151.409 168.701L157.81 169.433L164.211 169.8L171.526 170.165L178.842 169.98L183.231 169.8V168.519H183.962ZM91.6069 113.65L89.7769 113.467V112.187L90.6924 110.906L92.5205 111.089L93.2524 111.272L93.8022 112.187L93.6186 113.284L91.6069 113.65ZM87.3999 93.7149L86.6694 93.3487V92.253L87.0337 91.1543L88.1309 91.8867L88.3135 92.9824L87.3999 93.7149ZM94.3496 80.1807L94.167 81.0962L94.7144 81.6446L94.3496 82.9239L94.5322 84.022L94.167 84.2041L93.2524 83.8394L93.4355 82.5596L93.6186 82.0098L93.0688 81.0962L93.2524 80.729L94.3496 80.1807ZM123.245 80.5469L122.696 81.8267H123.429L124.343 82.9239L123.794 83.4732L124.343 84.753L125.256 85.1201L126.171 87.1294L127.269 88.5933L127.635 89.3252L129.097 89.6914L129.646 91.3384L130.377 92.253L122.879 101.58L112.089 116.576L113.186 117.308L113.918 118.955L114.101 120.6V123.161L116.295 122.247L118.307 122.064L118.124 123.893L118.307 125.539L119.039 127.55L118.856 129.928L118.672 134.135L120.502 137.061L119.587 139.072L118.124 139.986L117.759 138.522L116.845 136.877L117.577 134.135L116.845 130.843L117.577 127.733L116.295 127.002L114.101 125.721L113.003 123.893L112.089 119.503L111.175 118.223L109.712 115.845L107.883 114.931L106.602 112.005L106.055 109.992L104.592 109.444L103.311 111.456L102.58 111.089L100.75 110.541H99.105L97.4585 109.992L98.7393 108.346L101.299 106.518L103.127 106.701L103.311 105.787L100.934 105.969L98.7393 106.883L95.6294 107.249L95.2642 109.078L92.7036 109.811L90.6924 109.627L89.0464 109.261L87.7656 109.992L85.0234 109.444L83.7422 110.176L81.5478 109.811L81.1821 108.896L79.5361 108.346L77.8901 107.798L76.4268 107.433L74.2329 105.969L74.5996 105.42L76.6099 105.787L78.0732 106.335L80.2676 106.518L81.731 107.616L83.1938 107.433L85.7534 107.616L86.4853 107.433H87.9477L89.96 105.969L91.7891 105.054L89.96 104.506L90.144 103.774L88.8623 103.957L89.4126 102.31L88.3135 102.677L89.2285 101.213L87.3999 101.031L87.0337 100.3L88.3135 99.0176L89.4126 98.4717L89.7769 97.0078L88.3135 95.9097L89.0464 94.0811V92.8003L90.5093 91.7036L91.2407 90.0576L92.8867 89.3252L94.8975 89.1436L96.5435 88.5933L97.2749 89.1436V90.2383L99.105 90.0576L99.2876 90.7891L100.75 90.9722L101.665 89.8745L101.848 88.9595H103.311L102.762 88.4116L101.665 87.8623L100.75 88.0459L100.934 86.7647L99.6538 85.668L99.4702 83.8394L100.384 82.7422L101.299 80.5469L103.127 81.0962L105.689 82.1939L106.237 82.9239L104.773 83.6563L106.237 85.4849L107.335 83.6563L107.7 81.8267L108.615 80.3638L109.162 78.7178L109.528 77.0718L111.175 76.7051L112.089 77.9864L114.101 78.1695L115.563 77.4385H117.393L118.124 77.8032L120.319 78.3516L120.685 79.084H122.879L123.245 80.5469Z" fill="#2C5984"/>
<path d="M459.958 96.5908C452.874 96.5908 446.833 94.9746 441.837 91.7402C436.841 88.5068 433.026 83.8564 430.393 77.7881C427.758 71.7207 426.441 64.4004 426.441 55.8252C426.441 47.2871 427.749 40.0195 430.365 34.0254C432.981 28.0303 436.787 23.4609 441.783 20.3184C446.778 17.1758 452.837 15.6035 459.958 15.6035C465.518 15.6035 470.44 16.7578 474.728 19.0645C479.015 21.3721 482.467 24.4522 485.083 28.3027C487.699 32.1543 489.243 36.3877 489.716 41.001H478.979C478.397 37.9131 477.29 35.1152 475.655 32.6084C474.02 30.1006 471.875 28.1035 469.224 26.6133C466.571 25.124 463.392 24.3789 459.686 24.3789C454.926 24.3789 450.902 25.4961 447.614 27.7305C444.326 29.9648 441.837 33.4072 440.148 38.0576C438.458 42.709 437.614 48.668 437.614 55.9336C437.614 66.9072 439.494 74.9639 443.254 80.1045C447.015 85.2461 452.492 87.8164 459.686 87.8164C463.392 87.8164 466.571 87.0351 469.224 85.4726C471.875 83.9111 474.02 81.8213 475.655 79.2051C477.29 76.5898 478.397 73.7558 478.979 70.7031H489.716C489.315 74.0469 488.416 77.2705 487.018 80.3769C485.619 83.4834 483.702 86.2549 481.268 88.6885C478.833 91.123 475.845 93.0488 472.303 94.4658C468.76 95.8828 464.646 96.5908 459.958 96.5908Z" fill="#A5AFB7"/>
<path d="M518.162 96.21C515.11 96.21 512.648 95.791 510.777 94.9561C508.905 94.1201 507.47 92.9941 506.471 91.5771C505.472 90.1602 504.791 88.5342 504.428 86.6992C504.064 84.8652 503.883 82.9658 503.883 81.0039V14.5137H513.856V80.0234C513.856 82.8574 514.41 84.9824 515.519 86.3994C516.626 87.8164 518.18 88.5986 520.178 88.7432L523.23 88.7979V95.3379C522.394 95.5908 521.522 95.8008 520.614 95.9639C519.706 96.1279 518.888 96.21 518.162 96.21Z" fill="#A5AFB7"/>
<path d="M536.91 27.2129V16.748H547.265V27.2129H536.91ZM537.237 95.501V39.1484H546.993V95.501H537.237Z" fill="#A5AFB7"/>
<path d="M563.887 95.502V39.1494H573.642V47.3242C575.204 44.8535 577.348 42.6914 580.073 40.8389C582.798 38.9853 586.34 38.0586 590.701 38.0586C592.735 38.0586 594.815 38.4043 596.941 39.0947C599.066 39.7851 601.019 40.8203 602.799 42.2012C604.579 43.582 605.961 45.2715 606.941 47.2695C608.686 44.5088 611.047 42.2822 614.026 40.5928C617.005 38.9033 620.366 38.0586 624.109 38.0586C626.071 38.0586 628.124 38.3584 630.268 38.958C632.411 39.5576 634.4 40.6123 636.235 42.1191C638.069 43.6269 639.568 45.7158 640.731 48.3867C641.894 51.0576 642.476 54.4824 642.476 58.6601V95.502H632.338V59.6406C632.338 56.2266 631.793 53.583 630.704 51.7109C629.614 49.8398 628.187 48.5234 626.425 47.7598C624.663 46.9971 622.782 46.6152 620.785 46.6152C619.041 46.6152 617.187 46.9609 615.226 47.6514C613.264 48.3418 611.592 49.5039 610.211 51.1387C608.83 52.7744 608.141 55.0088 608.141 57.8428V95.5019H598.112V56.6982C598.112 54.4824 597.521 52.6289 596.341 51.1387C595.16 49.6494 593.688 48.5234 591.927 47.7598C590.164 46.9971 588.412 46.6152 586.667 46.6152C584.741 46.6152 582.807 46.9971 580.863 47.7598C578.919 48.5234 577.284 49.7402 575.958 51.4111C574.631 53.083 573.969 55.2265 573.969 57.8428V95.5019L563.887 95.502Z" fill="#A5AFB7"/>
<path d="M674.03 96.5918C670.359 96.5918 667.135 95.9463 664.356 94.6572C661.577 93.3682 659.396 91.5058 657.816 89.0713C656.235 86.6367 655.445 83.6943 655.445 80.2422C655.445 73.9932 657.625 69.3418 661.985 66.29C666.345 63.2383 673.339 61.6025 682.968 61.3848L692.996 61.1123V56.6982C692.996 53.2461 691.96 50.5117 689.889 48.4961C687.818 46.4795 684.621 45.4892 680.297 45.5254C677.063 45.5254 674.211 46.2705 671.741 47.7598C669.27 49.25 667.689 51.6836 666.999 55.0625H658.116C658.333 51.3935 659.36 48.2969 661.195 45.7705C663.029 43.2461 665.618 41.3291 668.961 40.0205C672.304 38.7129 676.246 38.0586 680.788 38.0586C685.693 38.0586 689.771 38.75 693.023 40.1299C696.274 41.5107 698.709 43.5459 700.326 46.2344C701.942 48.9229 702.751 52.2285 702.751 56.1533V95.502H694.14L693.377 84.9287C691.197 89.3252 688.435 92.3682 685.093 94.0576C681.75 95.7471 678.063 96.5918 674.03 96.5918ZM677.027 89.3437C678.953 89.3437 680.851 88.999 682.723 88.3076C684.593 87.6182 686.301 86.6826 687.846 85.501C689.389 84.3213 690.633 82.9941 691.579 81.5224C692.523 80.0508 692.996 78.5342 692.996 76.9717V67.3252L684.657 67.4893C680.333 67.5625 676.736 68.0068 673.866 68.8242C670.996 69.6416 668.833 70.8955 667.381 72.5849C665.927 74.2744 665.201 76.5 665.201 79.2607C665.201 82.4219 666.309 84.8935 668.525 86.6728C670.741 88.4531 673.575 89.3437 677.027 89.3437Z" fill="#A5AFB7"/>
<path d="M739.16 95.8291C735.271 95.8291 732.256 95.293 730.112 94.2217C727.968 93.1504 726.47 91.5781 725.616 89.5068C724.762 87.4355 724.335 84.8936 724.335 81.877V46.5068H715.18V39.1494H724.608L727.061 22.7441H734.473V39.0947H747.171V46.5068H734.473V81.5498C734.473 83.5488 734.681 85.0107 735.099 85.9375C735.517 86.8633 736.216 87.4551 737.198 87.708C738.179 87.9629 739.559 88.0899 741.339 88.0899H747.498V94.8477C746.808 95.1026 745.763 95.3301 744.364 95.5293C742.965 95.7285 741.23 95.8291 739.16 95.8291Z" fill="#A5AFB7"/>
<path d="M784.721 96.5918C779.489 96.5918 774.875 95.4473 770.878 93.1582C766.881 90.8692 763.756 87.582 761.504 83.2939C759.25 79.0068 758.125 73.8652 758.125 67.8701C758.125 61.9482 759.142 56.7529 761.177 52.2832C763.211 47.8145 766.164 44.3262 770.033 41.8193C773.903 39.3125 778.563 38.0586 784.012 38.0586C789.317 38.0586 793.804 39.2031 797.474 41.4922C801.143 43.7812 803.932 47.0059 805.84 51.166C807.747 55.3271 808.701 60.2588 808.701 65.9629V69.6689H768.316C768.316 73.2305 768.907 76.4541 770.088 79.3428C771.268 82.2315 773.058 84.5293 775.456 86.2373C777.854 87.9453 780.887 88.7988 784.558 88.7988C788.154 88.7988 791.251 87.9629 793.85 86.291C796.447 84.6211 798.109 82.2041 798.836 79.043H808.319C807.665 82.8584 806.148 86.0732 803.768 88.6894C801.389 91.3057 798.537 93.2764 795.212 94.6025C791.888 95.9287 788.39 96.5918 784.721 96.5918ZM768.371 62.8564H799C799 59.623 798.455 56.707 797.365 54.1094C796.275 51.5117 794.613 49.459 792.378 47.9512C790.144 46.4434 787.337 45.6885 783.958 45.6885C780.433 45.6885 777.508 46.5342 775.184 48.2236C772.858 49.9131 771.132 52.0752 770.006 54.709C768.879 57.3438 768.334 60.0586 768.371 62.8564Z" fill="#A5AFB7"/>
<path d="M850.5 95.502V16.6953H881.02C886.688 16.6953 891.429 17.5586 895.244 19.2842C899.06 21.0098 901.911 23.4805 903.801 26.6953C905.689 29.9111 906.635 33.7539 906.635 38.2226C906.635 42.5098 905.88 46.0703 904.373 48.9043C902.865 51.7383 900.948 54.0186 898.624 55.7441C896.298 57.4707 893.882 58.8057 891.375 59.75L906.853 95.5019H896.171L881.783 61.5488H860.583V95.5019L850.5 95.502ZM860.583 53.21H877.75C883.671 53.21 888.25 52.002 891.484 49.5859C894.717 47.1699 896.334 43.582 896.334 38.8223C896.334 34.1719 894.89 30.7012 892.001 28.4121C889.113 26.123 885.162 24.9785 880.148 24.9785H860.583V53.21Z" fill="#A5AFB7"/>
<path d="M945.986 96.5918C940.754 96.5918 936.14 95.4473 932.144 93.1582C928.146 90.8692 925.022 87.582 922.77 83.2939C920.516 79.0068 919.391 73.8652 919.391 67.8701C919.391 61.9482 920.407 56.7529 922.442 52.2832C924.477 47.8145 927.429 44.3262 931.299 41.8193C935.168 39.3125 939.828 38.0586 945.278 38.0586C950.583 38.0586 955.069 39.2031 958.74 41.4922C962.409 43.7812 965.198 47.0059 967.105 51.166C969.013 55.3271 969.966 60.2588 969.966 65.9629V69.6689H929.582C929.582 73.2305 930.172 76.4541 931.354 79.3428C932.534 82.2315 934.324 84.5293 936.722 86.2373C939.12 87.9453 942.153 88.7988 945.823 88.7988C949.42 88.7988 952.517 87.9629 955.115 86.291C957.712 84.6211 959.375 82.2041 960.102 79.043H969.585C968.931 82.8584 967.414 86.0732 965.034 88.6894C962.654 91.3057 959.802 93.2764 956.478 94.6025C953.153 95.9287 949.656 96.5918 945.986 96.5918ZM929.637 62.8564H960.266C960.266 59.623 959.721 56.707 958.63 54.1094C957.541 51.5117 955.878 49.459 953.644 47.9512C951.409 46.4434 948.603 45.6885 945.224 45.6885C941.699 45.6885 938.774 46.5342 936.449 48.2236C934.124 49.9131 932.397 52.0752 931.271 54.709C930.145 57.3438 929.6 60.0586 929.637 62.8564Z" fill="#A5AFB7"/>
<path d="M1004.19 96.5899C1000.27 96.5899 996.625 95.9815 993.265 94.7647C989.904 93.5479 987.115 91.6397 984.899 89.042C982.683 86.4443 981.303 83.1289 980.758 79.0957H989.914C990.385 81.3125 991.294 83.1553 992.639 84.627C993.982 86.0986 995.645 87.207 997.625 87.9522C999.605 88.6973 1001.78 89.0694 1004.14 89.0694C1007.95 89.0694 1011.02 88.3604 1013.35 86.9434C1015.67 85.5264 1016.84 83.3467 1016.84 80.4033C1016.84 78.332 1016.23 76.6699 1015.01 75.417C1013.79 74.1631 1011.9 73.2461 1009.32 72.6641L997.652 69.7764C993.11 68.6856 989.486 66.9785 986.78 64.6533C984.073 62.3281 982.701 59.0762 982.665 54.8975C982.665 51.5918 983.464 48.6846 985.063 46.1777C986.662 43.6709 989.05 41.6904 992.23 40.2373C995.409 38.7842 999.378 38.0566 1004.14 38.0566C1010.28 38.0566 1015.22 39.4287 1018.96 42.1719C1022.7 44.915 1024.67 48.9395 1024.85 54.2432H1015.91C1015.55 51.5547 1014.35 49.4199 1012.31 47.8398C1010.28 46.2588 1007.52 45.4688 1004.03 45.4688C1000.47 45.4688 997.552 46.1865 995.282 47.6221C993.011 49.0576 991.875 51.2822 991.875 54.2979C991.875 56.2969 992.684 57.8682 994.301 59.0127C995.917 60.1572 998.27 61.1104 1001.36 61.873L1012.69 64.707C1015.27 65.3984 1017.42 66.3066 1019.13 67.4326C1020.83 68.5596 1022.18 69.8125 1023.16 71.1934C1024.14 72.5742 1024.84 74.0186 1025.26 75.5254C1025.67 77.0342 1025.88 78.4785 1025.88 79.8584C1025.88 83.3105 1025.03 86.2813 1023.32 88.7695C1021.61 91.2588 1019.14 93.1836 1015.91 94.5459C1012.68 95.9092 1008.77 96.5899 1004.19 96.5899Z" fill="#A5AFB7"/>
<path d="M1039.02 27.2129V16.748H1049.37V27.2129H1039.02ZM1039.34 95.501V39.1484H1049.1V95.501H1039.34Z" fill="#A5AFB7"/>
<path d="M1080.27 96.21C1077.22 96.21 1074.76 95.791 1072.89 94.9561C1071.01 94.1201 1069.58 92.9941 1068.58 91.5771C1067.58 90.1602 1066.9 88.5342 1066.54 86.6992C1066.17 84.8652 1065.99 82.9658 1065.99 81.0039V14.5137H1075.97V80.0234C1075.97 82.8574 1076.52 84.9824 1077.63 86.3994C1078.74 87.8164 1080.29 88.5986 1082.29 88.7432L1085.34 88.7979V95.3379C1084.5 95.5908 1083.63 95.8008 1082.72 95.9639C1081.81 96.1279 1081 96.21 1080.27 96.21Z" fill="#A5AFB7"/>
<path d="M1099.02 27.2129V16.748H1109.37V27.2129H1099.02ZM1099.35 95.501V39.1484H1109.1V95.501H1099.35Z" fill="#A5AFB7"/>
<path d="M1149.87 96.5918C1144.64 96.5918 1140.02 95.4473 1136.03 93.1582C1132.03 90.8692 1128.9 87.582 1126.65 83.2939C1124.4 79.0068 1123.27 73.8652 1123.27 67.8701C1123.27 61.9482 1124.29 56.7529 1126.33 52.2832C1128.36 47.8145 1131.31 44.3262 1135.18 41.8193C1139.05 39.3125 1143.71 38.0586 1149.16 38.0586C1154.47 38.0586 1158.95 39.2031 1162.62 41.4922C1166.29 43.7812 1169.08 47.0059 1170.99 51.166C1172.9 55.3271 1173.85 60.2588 1173.85 65.9629V69.6689H1133.46C1133.46 73.2305 1134.06 76.4541 1135.24 79.3428C1136.42 82.2315 1138.21 84.5293 1140.6 86.2373C1143 87.9453 1146.04 88.7988 1149.71 88.7988C1153.3 88.7988 1156.4 87.9629 1159 86.291C1161.6 84.6211 1163.26 82.2041 1163.98 79.043H1173.47C1172.81 82.8584 1171.3 86.0732 1168.92 88.6894C1166.54 91.3057 1163.69 93.2764 1160.36 94.6025C1157.04 95.9287 1153.54 96.5918 1149.87 96.5918ZM1133.52 62.8564H1164.15C1164.15 59.623 1163.6 56.707 1162.51 54.1094C1161.42 51.5117 1159.76 49.459 1157.53 47.9512C1155.29 46.4434 1152.49 45.6885 1149.11 45.6885C1145.58 45.6885 1142.66 46.5342 1140.33 48.2236C1138.01 49.9131 1136.28 52.0752 1135.15 54.709C1134.03 57.3438 1133.48 60.0586 1133.52 62.8564Z" fill="#A5AFB7"/>
<path d="M1187.75 95.501V39.1485H1197.56V47.3233C1198.46 45.7608 1199.73 44.2979 1201.34 42.9356C1202.96 41.5733 1204.92 40.4746 1207.23 39.6387C1209.54 38.8027 1212.2 38.3848 1215.21 38.3848C1218.77 38.3848 1222.05 39.085 1225.05 40.4834C1228.05 41.8828 1230.45 44.0801 1232.25 47.0781C1234.04 50.0752 1234.94 53.9365 1234.94 58.6592V95.501H1224.86V59.6396C1224.86 55.2441 1223.71 51.9824 1221.4 49.8574C1219.09 47.7314 1216.1 46.6689 1212.43 46.6689C1209.89 46.6689 1207.51 47.0781 1205.29 47.8955C1203.08 48.7129 1201.28 49.9482 1199.9 51.6015C1198.52 53.2549 1197.83 55.335 1197.83 57.8418V95.501L1187.75 95.501Z" fill="#A5AFB7"/>
<path d="M1273.36 96.5918C1268.28 96.5918 1263.78 95.4844 1259.88 93.2676C1255.97 91.0518 1252.92 87.7812 1250.72 83.457C1248.52 79.1338 1247.42 73.8301 1247.42 67.543C1247.42 61.6572 1248.43 56.5068 1250.45 52.0928C1252.46 47.6777 1255.41 44.2363 1259.28 41.7646C1263.15 39.2949 1267.84 38.0586 1273.36 38.0586C1277.4 38.0586 1281.02 38.8311 1284.24 40.375C1287.45 41.9199 1290.1 44.1084 1292.17 46.9424C1294.24 49.7764 1295.51 53.1377 1295.98 57.0254H1287.04C1286.72 55.0273 1285.96 53.21 1284.78 51.5752C1283.6 49.9404 1282.06 48.6318 1280.15 47.6514C1278.24 46.6699 1276 46.1797 1273.42 46.1797C1268.59 46.1797 1264.65 47.9238 1261.62 51.4111C1258.58 54.8994 1257.07 60.2402 1257.07 67.4346C1257.07 73.9385 1258.46 79.1436 1261.24 83.0488C1264.02 86.9551 1268.11 88.9072 1273.53 88.9072C1276.11 88.9072 1278.35 88.4082 1280.26 87.4092C1282.17 86.4102 1283.71 85.084 1284.89 83.4307C1286.07 81.7773 1286.83 80.0059 1287.15 78.1162H1295.93C1295.45 81.8955 1294.17 85.166 1292.08 87.9268C1290 90.6885 1287.34 92.8232 1284.13 94.3301C1280.91 95.8379 1277.32 96.5918 1273.36 96.5918Z" fill="#A5AFB7"/>
<path d="M1333.37 96.5918C1328.14 96.5918 1323.52 95.4473 1319.53 93.1582C1315.53 90.8692 1312.4 87.582 1310.15 83.2939C1307.9 79.0068 1306.77 73.8652 1306.77 67.8701C1306.77 61.9482 1307.79 56.7529 1309.83 52.2832C1311.86 47.8145 1314.81 44.3262 1318.68 41.8193C1322.55 39.3125 1327.21 38.0586 1332.66 38.0586C1337.97 38.0586 1342.45 39.2031 1346.12 41.4922C1349.79 43.7812 1352.58 47.0059 1354.49 51.166C1356.4 55.3271 1357.35 60.2588 1357.35 65.9629V69.6689H1316.96C1316.96 73.2305 1317.56 76.4541 1318.74 79.3428C1319.92 82.2315 1321.71 84.5293 1324.1 86.2373C1326.5 87.9453 1329.54 88.7988 1333.21 88.7988C1336.8 88.7988 1339.9 87.9629 1342.5 86.291C1345.1 84.6211 1346.76 82.2041 1347.48 79.043H1356.97C1356.31 82.8584 1354.8 86.0732 1352.42 88.6894C1350.04 91.3057 1347.19 93.2764 1343.86 94.6025C1340.54 95.9287 1337.04 96.5918 1333.37 96.5918ZM1317.02 62.8564H1347.65C1347.65 59.623 1347.1 56.707 1346.01 54.1094C1344.92 51.5117 1343.26 49.459 1341.03 47.9512C1338.79 46.4434 1335.99 45.6885 1332.61 45.6885C1329.08 45.6885 1326.16 46.5342 1323.83 48.2236C1321.51 49.9131 1319.78 52.0752 1318.65 54.709C1317.53 57.3438 1316.98 60.0586 1317.02 62.8564Z" fill="#A5AFB7"/>
<path d="M437.832 214.205V135.398H447.915V214.205H437.832Z" fill="#A5AFB7"/>
<path d="M466.551 214.206V157.854H476.361V166.028C477.269 164.466 478.531 163.003 480.148 161.641C481.765 160.278 483.727 159.18 486.034 158.344C488.341 157.508 491.002 157.09 494.019 157.09C497.579 157.09 500.858 157.79 503.856 159.188C506.854 160.588 509.251 162.785 511.05 165.783C512.848 168.78 513.748 172.642 513.748 177.364V214.206H503.665V178.345C503.665 173.949 502.511 170.687 500.205 168.562C497.896 166.437 494.909 165.374 491.239 165.374C488.695 165.374 486.315 165.783 484.1 166.601C481.883 167.418 480.084 168.653 478.704 170.307C477.323 171.96 476.633 174.04 476.633 176.547V214.206L466.551 214.206Z" fill="#A5AFB7"/>
<path d="M536.967 214.205V165.21H525.086V157.853H536.967V149.132C536.967 144.663 538.112 141.257 540.4 138.913C542.689 136.57 546.104 135.398 550.646 135.398H561.274L561.329 142.537H552.936C550.61 142.537 549.029 143.156 548.194 144.391C547.358 145.626 546.94 147.497 546.94 150.004V157.853H560.784V165.21H547.104V214.205H536.967Z" fill="#A5AFB7"/>
<path d="M595.224 215.297C590.027 215.297 585.496 214.18 581.626 211.945C577.756 209.711 574.75 206.433 572.606 202.108C570.462 197.784 569.391 192.498 569.391 186.248C569.391 180.362 570.39 175.204 572.388 170.771C574.386 166.338 577.311 162.896 581.163 160.442C585.014 157.99 589.719 156.764 595.278 156.764C600.474 156.764 604.979 157.9 608.794 160.17C612.609 162.441 615.58 165.775 617.705 170.171C619.831 174.567 620.893 179.927 620.893 186.248C620.893 191.99 619.912 197.039 617.95 201.399C615.988 205.76 613.108 209.166 609.312 211.618C605.515 214.07 600.818 215.297 595.224 215.297ZM595.278 207.34C598.621 207.34 601.455 206.486 603.78 204.778C606.105 203.071 607.876 200.618 609.094 197.421C610.311 194.225 610.92 190.427 610.92 186.03C610.92 181.997 610.383 178.373 609.312 175.158C608.24 171.942 606.56 169.391 604.271 167.501C601.982 165.611 598.984 164.667 595.278 164.667C591.863 164.667 588.974 165.512 586.613 167.201C584.25 168.891 582.461 171.334 581.245 174.531C580.027 177.729 579.419 181.562 579.419 186.03C579.419 189.991 579.955 193.588 581.026 196.821C582.098 200.056 583.806 202.617 586.149 204.506C588.493 206.396 591.536 207.34 595.278 207.34Z" fill="#A5AFB7"/>
<path d="M634.246 214.207V157.854H643.893V168.699C644.837 166.011 646.163 163.786 647.871 162.023C649.578 160.262 651.531 158.944 653.729 158.072C655.928 157.2 658.207 156.764 660.569 156.764C661.405 156.764 662.222 156.818 663.022 156.928C663.821 157.036 664.439 157.219 664.875 157.473V167.229C664.33 166.975 663.63 166.802 662.777 166.71C661.922 166.62 661.205 166.574 660.624 166.574C658.371 166.43 656.264 166.565 654.302 166.982C652.34 167.401 650.614 168.119 649.125 169.136C647.634 170.153 646.462 171.488 645.609 173.142C644.755 174.795 644.329 176.802 644.329 179.163V214.207H634.246Z" fill="#A5AFB7"/>
<path d="M676.863 214.205V157.853H686.619V166.027C688.18 163.557 690.325 161.395 693.05 159.542C695.774 157.688 699.317 156.762 703.677 156.762C705.711 156.762 707.792 157.107 709.918 157.798C712.043 158.488 713.996 159.523 715.776 160.904C717.556 162.285 718.937 163.975 719.918 165.973C721.662 163.212 724.024 160.985 727.003 159.296C729.982 157.606 733.343 156.762 737.086 156.762C739.047 156.762 741.1 157.062 743.244 157.661C745.388 158.261 747.377 159.315 749.212 160.822C751.046 162.33 752.545 164.419 753.708 167.09C754.871 169.761 755.452 173.186 755.452 177.363V214.205H745.315V178.344C745.315 174.93 744.77 172.286 743.68 170.414C742.59 168.543 741.164 167.227 739.402 166.463C737.639 165.7 735.759 165.318 733.761 165.318C732.017 165.318 730.164 165.664 728.202 166.354C726.24 167.045 724.568 168.207 723.188 169.842C721.807 171.478 721.117 173.712 721.117 176.546V214.205H711.089V175.401C711.089 173.186 710.498 171.332 709.318 169.842C708.137 168.353 706.665 167.227 704.903 166.463C703.141 165.7 701.388 165.318 699.644 165.318C697.718 165.318 695.783 165.7 693.84 166.463C691.896 167.227 690.261 168.443 688.935 170.114C687.608 171.786 686.946 173.93 686.946 176.546V214.205L676.863 214.205Z" fill="#A5AFB7"/>
<path d="M787.006 215.297C783.336 215.297 780.112 214.651 777.333 213.362C774.553 212.073 772.373 210.211 770.792 207.776C769.212 205.342 768.422 202.399 768.422 198.947C768.422 192.698 770.602 188.047 774.962 184.995C779.322 181.943 786.316 180.308 795.944 180.09L805.972 179.817V175.403C805.972 171.951 804.937 169.217 802.866 167.201C800.795 165.185 797.597 164.194 793.274 164.23C790.039 164.23 787.187 164.976 784.717 166.465C782.246 167.955 780.665 170.389 779.976 173.768H771.092C771.31 170.099 772.336 167.002 774.171 164.476C776.006 161.951 778.595 160.034 781.938 158.726C785.28 157.418 789.222 156.764 793.764 156.764C798.669 156.764 802.748 157.455 805.999 158.835C809.251 160.216 811.685 162.251 813.303 164.939C814.919 167.628 815.728 170.934 815.728 174.858V214.207H807.117L806.354 203.634C804.174 208.03 801.412 211.073 798.07 212.763C794.727 214.452 791.039 215.297 787.006 215.297ZM790.004 208.049C791.929 208.049 793.827 207.704 795.699 207.013C797.57 206.323 799.277 205.388 800.822 204.206C802.366 203.026 803.61 201.699 804.555 200.228C805.5 198.756 805.972 197.239 805.972 195.677V186.03L797.634 186.194C793.31 186.268 789.712 186.712 786.843 187.529C783.972 188.347 781.81 189.601 780.357 191.29C778.904 192.979 778.177 195.205 778.177 197.966C778.177 201.127 779.285 203.599 781.502 205.378C783.718 207.158 786.552 208.049 790.004 208.049Z" fill="#A5AFB7"/>
<path d="M852.136 214.534C848.248 214.534 845.232 213.998 843.089 212.927C840.945 211.855 839.446 210.283 838.593 208.212C837.739 206.141 837.312 203.599 837.312 200.582V165.212H828.156V157.854H837.584L840.037 141.449H847.449V157.8H860.147V165.212H847.449V200.255C847.449 202.254 847.658 203.716 848.076 204.643C848.493 205.568 849.193 206.16 850.174 206.413C851.155 206.668 852.536 206.795 854.316 206.795H860.475V213.553C859.784 213.808 858.739 214.035 857.341 214.234C855.942 214.434 854.207 214.534 852.136 214.534Z" fill="#A5AFB7"/>
<path d="M873.824 145.918V135.453H884.179V145.918H873.824ZM874.151 214.206V157.854H883.907V214.206H874.151Z" fill="#A5AFB7"/>
<path d="M923.419 215.297C918.223 215.297 913.691 214.18 909.821 211.945C905.952 209.711 902.945 206.433 900.802 202.108C898.657 197.784 897.586 192.498 897.586 186.248C897.586 180.362 898.585 175.204 900.583 170.771C902.582 166.338 905.506 162.896 909.358 160.442C913.209 157.99 917.915 156.764 923.474 156.764C928.669 156.764 933.175 157.9 936.99 160.17C940.805 162.441 943.775 165.775 945.9 170.171C948.026 174.567 949.088 179.927 949.088 186.248C949.088 191.99 948.107 197.039 946.146 201.399C944.184 205.76 941.304 209.166 937.507 211.618C933.71 214.07 929.014 215.297 923.419 215.297ZM923.474 207.34C926.816 207.34 929.65 206.486 931.976 204.778C934.3 203.071 936.072 200.618 937.29 197.421C938.506 194.225 939.115 190.427 939.115 186.03C939.115 181.997 938.579 178.373 937.507 175.158C936.435 171.942 934.755 169.391 932.466 167.501C930.177 165.611 927.18 164.667 923.474 164.667C920.058 164.667 917.169 165.512 914.808 167.201C912.446 168.891 910.657 171.334 909.44 174.531C908.222 177.729 907.614 181.562 907.614 186.03C907.614 189.991 908.15 193.588 909.222 196.821C910.293 200.056 912.001 202.617 914.345 204.506C916.688 206.396 919.731 207.34 923.474 207.34Z" fill="#A5AFB7"/>
<path d="M962.441 214.206V157.854H972.251V166.028C973.159 164.466 974.422 163.003 976.039 161.641C977.655 160.278 979.617 159.18 981.925 158.344C984.232 157.508 986.893 157.09 989.909 157.09C993.47 157.09 996.749 157.79 999.747 159.188C1002.74 160.588 1005.14 162.785 1006.94 165.783C1008.74 168.78 1009.64 172.642 1009.64 177.364V214.206H999.556V178.345C999.556 173.949 998.402 170.687 996.095 168.562C993.787 166.437 990.799 165.374 987.13 165.374C984.586 165.374 982.206 165.783 979.99 166.601C977.773 167.418 975.975 168.653 974.595 170.307C973.213 171.96 972.524 174.04 972.524 176.547V214.206L962.441 214.206Z" fill="#A5AFB7"/>
<path d="M1080.65 215.296C1076.8 215.296 1073.15 214.833 1069.7 213.906C1066.25 212.98 1063.11 211.59 1060.3 209.737C1057.48 207.884 1055.15 205.587 1053.32 202.843C1051.49 200.1 1050.33 196.912 1049.86 193.278H1060.43C1061.09 196.258 1062.39 198.765 1064.33 200.799C1066.27 202.834 1068.69 204.36 1071.58 205.377C1074.47 206.395 1077.64 206.903 1081.09 206.903C1084.43 206.903 1087.51 206.377 1090.33 205.322C1093.14 204.27 1095.4 202.733 1097.11 200.718C1098.82 198.701 1099.67 196.275 1099.67 193.441C1099.67 190.317 1098.65 187.801 1096.62 185.894C1094.59 183.985 1091.44 182.451 1087.19 181.288L1070.95 177.092C1067.28 176.184 1064.04 174.903 1061.22 173.249C1058.41 171.597 1056.2 169.416 1054.6 166.709C1053 164.003 1052.2 160.633 1052.2 156.6C1052.2 152.167 1053.44 148.28 1055.91 144.937C1058.38 141.594 1061.73 139.006 1065.96 137.17C1070.2 135.336 1074.98 134.418 1080.33 134.418C1086.5 134.418 1091.71 135.49 1095.94 137.634C1100.17 139.777 1103.38 142.593 1105.56 146.081C1107.74 149.569 1108.83 153.294 1108.83 157.254H1098.47C1098.11 153.656 1097.05 150.814 1095.29 148.725C1093.52 146.636 1091.32 145.127 1088.66 144.201C1086.01 143.274 1083.12 142.812 1080 142.812C1074.37 142.812 1070.11 144.092 1067.22 146.653C1064.33 149.215 1062.89 152.258 1062.89 155.782C1062.89 159.017 1063.92 161.559 1065.99 163.412C1068.06 165.265 1071.11 166.701 1075.15 167.718L1090.95 171.805C1095.64 172.896 1099.37 174.476 1102.15 176.547C1104.93 178.617 1106.93 181.025 1108.15 183.768C1109.36 186.512 1109.97 189.481 1109.97 192.679C1109.97 197.038 1108.76 200.927 1106.32 204.342C1103.89 207.757 1100.48 210.438 1096.1 212.38C1091.72 214.323 1086.57 215.296 1080.65 215.296Z" fill="#A5AFB7"/>
<path d="M1130.52 232.191C1127.21 232.191 1124.32 231.719 1121.85 230.774V224.234L1127.63 224.343C1129.7 224.415 1131.43 224.27 1132.81 223.907C1134.19 223.543 1135.3 223.053 1136.13 222.436C1136.97 221.817 1137.61 221.128 1138.07 220.364C1138.52 219.602 1138.89 218.874 1139.19 218.185L1141.15 212.844L1119.13 157.854H1129.32L1145.94 201.344L1162.46 157.854H1172.32L1148.61 218.457C1147.12 222.018 1145.48 224.797 1143.68 226.796C1141.88 228.793 1139.88 230.192 1137.69 230.992C1135.49 231.791 1133.1 232.191 1130.52 232.191Z" fill="#A5AFB7"/>
<path d="M1203.49 215.295C1199.57 215.295 1195.93 214.687 1192.57 213.47C1189.21 212.253 1186.42 210.345 1184.2 207.747C1181.98 205.149 1180.6 201.834 1180.06 197.801H1189.21C1189.69 200.018 1190.59 201.86 1191.94 203.332C1193.28 204.804 1194.95 205.912 1196.93 206.657C1198.91 207.402 1201.08 207.774 1203.44 207.774C1207.25 207.774 1210.32 207.065 1212.65 205.648C1214.97 204.231 1216.14 202.052 1216.14 199.108C1216.14 197.037 1215.53 195.375 1214.31 194.122C1213.09 192.868 1211.2 191.951 1208.62 191.369L1196.95 188.481C1192.41 187.391 1188.79 185.684 1186.08 183.358C1183.37 181.033 1182 177.781 1181.97 173.603C1181.97 170.297 1182.76 167.39 1184.36 164.883C1185.96 162.376 1188.35 160.396 1191.53 158.942C1194.71 157.489 1198.68 156.762 1203.44 156.762C1209.58 156.762 1214.52 158.134 1218.26 160.877C1222 163.62 1223.97 167.645 1224.15 172.948H1215.21C1214.85 170.26 1213.65 168.125 1211.61 166.545C1209.58 164.964 1206.82 164.174 1203.33 164.174C1199.77 164.174 1196.85 164.892 1194.58 166.327C1192.31 167.763 1191.18 169.987 1191.18 173.003C1191.18 175.002 1191.98 176.573 1193.6 177.718C1195.22 178.862 1197.57 179.815 1200.66 180.578L1212 183.412C1214.57 184.104 1216.72 185.012 1218.43 186.138C1220.13 187.265 1221.48 188.518 1222.46 189.898C1223.44 191.279 1224.14 192.724 1224.56 194.23C1224.98 195.739 1225.18 197.184 1225.18 198.563C1225.18 202.016 1224.33 204.986 1222.62 207.475C1220.91 209.964 1218.44 211.889 1215.21 213.251C1211.98 214.614 1208.07 215.295 1203.49 215.295Z" fill="#A5AFB7"/>
<path d="M1259.03 214.534C1255.14 214.534 1252.12 213.998 1249.98 212.927C1247.84 211.855 1246.34 210.283 1245.48 208.212C1244.63 206.141 1244.2 203.599 1244.2 200.582V165.212H1235.05V157.854H1244.48L1246.93 141.449H1254.34V157.8H1267.04V165.212H1254.34V200.255C1254.34 202.254 1254.55 203.716 1254.97 204.643C1255.38 205.568 1256.08 206.16 1257.06 206.413C1258.05 206.668 1259.43 206.795 1261.21 206.795H1267.37V213.553C1266.67 213.808 1265.63 214.035 1264.23 214.234C1262.83 214.434 1261.1 214.534 1259.03 214.534Z" fill="#A5AFB7"/>
<path d="M1304.59 215.297C1299.36 215.297 1294.74 214.152 1290.75 211.863C1286.75 209.574 1283.62 206.287 1281.37 201.999C1279.12 197.712 1277.99 192.57 1277.99 186.575C1277.99 180.653 1279.01 175.458 1281.04 170.988C1283.08 166.52 1286.03 163.031 1289.9 160.524C1293.77 158.018 1298.43 156.764 1303.88 156.764C1309.18 156.764 1313.67 157.908 1317.34 160.197C1321.01 162.486 1323.8 165.711 1325.71 169.871C1327.61 174.032 1328.57 178.964 1328.57 184.668V188.374H1288.18C1288.18 191.936 1288.77 195.159 1289.96 198.048C1291.14 200.937 1292.93 203.234 1295.32 204.942C1297.72 206.65 1300.75 207.504 1304.42 207.504C1308.02 207.504 1311.12 206.668 1313.72 204.996C1316.31 203.326 1317.98 200.909 1318.7 197.748H1328.19C1327.53 201.563 1326.02 204.778 1323.64 207.395C1321.26 210.011 1318.4 211.981 1315.08 213.308C1311.75 214.634 1308.26 215.297 1304.59 215.297ZM1288.24 181.562H1318.87C1318.87 178.328 1318.32 175.412 1317.23 172.814C1316.14 170.217 1314.48 168.164 1312.25 166.656C1310.01 165.148 1307.2 164.394 1303.83 164.394C1300.3 164.394 1297.38 165.239 1295.05 166.929C1292.73 168.618 1291 170.78 1289.87 173.414C1288.75 176.049 1288.2 178.764 1288.24 181.562Z" fill="#A5AFB7"/>
<path d="M1342.46 214.205V157.853H1352.22V166.027C1353.78 163.557 1355.93 161.395 1358.65 159.542C1361.38 157.688 1364.92 156.762 1369.28 156.762C1371.31 156.762 1373.39 157.107 1375.52 157.798C1377.64 158.488 1379.6 159.523 1381.38 160.904C1383.16 162.285 1384.54 163.975 1385.52 165.973C1387.26 163.212 1389.63 160.985 1392.6 159.296C1395.58 157.606 1398.94 156.762 1402.69 156.762C1404.65 156.762 1406.7 157.062 1408.85 157.661C1410.99 158.261 1412.98 159.315 1414.81 160.822C1416.65 162.33 1418.15 164.419 1419.31 167.09C1420.47 169.761 1421.05 173.186 1421.05 177.363V214.205H1410.92V178.344C1410.92 174.93 1410.37 172.286 1409.28 170.414C1408.19 168.543 1406.77 167.227 1405 166.463C1403.24 165.7 1401.36 165.318 1399.36 165.318C1397.62 165.318 1395.77 165.664 1393.8 166.354C1391.84 167.045 1390.17 168.207 1388.79 169.842C1387.41 171.478 1386.72 173.712 1386.72 176.546V214.205H1376.69V175.401C1376.69 173.186 1376.1 171.332 1374.92 169.842C1373.74 168.353 1372.27 167.227 1370.5 166.463C1368.74 165.7 1366.99 165.318 1365.25 165.318C1363.32 165.318 1361.38 165.7 1359.44 166.463C1357.5 167.227 1355.86 168.443 1354.54 170.114C1353.21 171.786 1352.55 173.93 1352.55 176.546V214.205L1342.46 214.205Z" fill="#A5AFB7"/>
<path d="M454.791 324.84C449.135 324.84 444.249 323.524 440.133 320.892C436.017 318.261 432.846 314.564 430.62 309.804C428.394 305.044 427.281 299.486 427.281 293.13C427.281 286.746 428.387 281.265 430.599 276.687C432.811 272.109 435.975 268.588 440.091 266.124C444.207 263.66 449.106 262.428 454.791 262.428C459.355 262.428 463.422 263.346 466.992 265.179C470.562 267.014 473.446 269.513 475.644 272.676C477.842 275.841 479.137 279.41 479.529 283.386H466.677C466.285 281.286 465.571 279.417 464.535 277.779C463.499 276.141 462.141 274.854 460.461 273.915C458.781 272.978 456.765 272.508 454.413 272.508C451.585 272.508 449.148 273.194 447.105 274.566C445.061 275.938 443.493 278.15 442.401 281.202C441.309 284.254 440.763 288.286 440.763 293.298C440.763 300.858 441.974 306.325 444.396 309.699C446.817 313.073 450.157 314.76 454.413 314.76C456.765 314.76 458.781 314.222 460.461 313.143C462.141 312.065 463.499 310.638 464.535 308.859C465.571 307.081 466.285 305.128 466.677 303H479.529C479.165 305.884 478.464 308.635 477.429 311.253C476.393 313.871 474.923 316.202 473.019 318.246C471.115 320.29 468.665 321.9 465.669 323.076C462.672 324.252 459.047 324.84 454.791 324.84Z" fill="#2C5984"/>
<path d="M490.363 324V263.268H515.983C520.827 263.268 524.789 264.038 527.869 265.578C530.949 267.118 533.217 269.253 534.673 271.983C536.128 274.713 536.857 277.856 536.857 281.412C536.857 284.604 536.36 287.299 535.366 289.497C534.372 291.695 533.07 293.522 531.46 294.978C529.85 296.435 528.093 297.624 526.189 298.548L537.487 324H524.761L514.849 300.606H502.585V324H490.363ZM502.585 291.156H513.799C517.075 291.156 519.672 290.274 521.59 288.51C523.508 286.746 524.467 284.478 524.467 281.706C524.467 278.906 523.543 276.694 521.695 275.07C519.847 273.446 517.509 272.634 514.681 272.634H502.585V291.156Z" fill="#2C5984"/>
<path d="M548.828 324V263.268H561.05V324H548.828Z" fill="#2C5984"/>
<path d="M597.422 324.84C594.398 324.84 591.444 324.462 588.561 323.706C585.676 322.95 583.044 321.816 580.665 320.304C578.284 318.792 576.331 316.902 574.806 314.634C573.279 312.366 572.362 309.706 572.055 306.654H584.612C585.033 308.502 585.837 310.056 587.027 311.316C588.217 312.576 589.757 313.542 591.647 314.214C593.538 314.886 595.701 315.222 598.137 315.222C600.068 315.222 601.902 314.942 603.639 314.382C605.375 313.822 606.789 312.969 607.88 311.82C608.973 310.672 609.519 309.23 609.519 307.494C609.519 305.422 608.763 303.861 607.25 302.811C605.738 301.761 603.681 300.928 601.077 300.312L589.694 297.834C586.474 297.162 583.667 296.119 581.273 294.705C578.879 293.291 577.038 291.443 575.75 289.161C574.462 286.879 573.818 284.1 573.818 280.824C573.818 277.044 574.861 273.782 576.947 271.038C579.033 268.294 581.875 266.187 585.474 264.717C589.071 263.247 593.11 262.512 597.59 262.512C602.658 262.512 606.936 263.331 610.421 264.969C613.908 266.607 616.575 268.819 618.422 271.605C620.271 274.392 621.208 277.506 621.236 280.95H608.973C608.748 278.822 608.104 277.121 607.041 275.847C605.976 274.573 604.611 273.649 602.945 273.075C601.279 272.501 599.382 272.214 597.254 272.214C593.586 272.214 590.913 272.956 589.232 274.44C587.553 275.925 586.712 277.646 586.712 279.606C586.712 281.454 587.349 282.945 588.624 284.079C589.897 285.213 591.948 286.074 594.776 286.662L605.318 288.93C609.238 289.686 612.416 290.883 614.853 292.521C617.289 294.159 619.066 296.141 620.186 298.464C621.306 300.788 621.867 303.393 621.867 306.276C621.867 309.944 620.823 313.171 618.737 315.957C616.651 318.743 613.774 320.92 610.106 322.488C606.438 324.056 602.21 324.84 597.422 324.84Z" fill="#2C5984"/>
<path d="M651.727 324V263.268H659.307C661.225 263.268 663.143 263.275 665.062 263.289C666.979 263.304 668.582 263.324 669.871 263.352C677.234 263.548 683.24 264.879 687.888 267.342C692.536 269.807 695.945 273.243 698.115 277.653C700.285 282.063 701.371 287.292 701.371 293.34C701.371 299.64 700.222 305.079 697.926 309.657C695.63 314.235 692.123 317.77 687.405 320.262C682.687 322.755 676.702 324 669.45 324L651.727 324ZM664.074 314.088H669.702C673.174 314.088 676.331 313.416 679.173 312.072C682.015 310.728 684.29 308.53 685.999 305.478C687.706 302.427 688.561 298.353 688.561 293.256C688.561 288.524 687.804 284.682 686.292 281.727C684.78 278.773 682.624 276.61 679.824 275.238C677.024 273.866 673.706 273.18 669.871 273.18H664.074V314.088Z" fill="#2C5984"/>
<path d="M723.545 324.84C720.8 324.84 718.316 324.321 716.09 323.286C713.864 322.25 712.106 320.745 710.819 318.771C709.531 316.797 708.887 314.396 708.887 311.568C708.887 306.809 710.665 303.189 714.221 300.711C717.776 298.233 723.391 296.952 731.063 296.868L736.523 296.784V294.18C736.523 292.192 735.941 290.659 734.78 289.581C733.618 288.504 731.804 287.979 729.341 288.006C727.577 288.034 725.89 288.454 724.28 289.266C722.669 290.078 721.557 291.492 720.941 293.508H710.735C710.903 290.372 711.82 287.789 713.486 285.759C715.151 283.729 717.398 282.217 720.227 281.223C723.055 280.229 726.289 279.732 729.929 279.732C734.353 279.732 737.909 280.285 740.597 281.391C743.285 282.497 745.238 284.079 746.456 286.137C747.674 288.195 748.283 290.639 748.283 293.466V324H738.035L737.027 316.524C735.542 319.66 733.688 321.83 731.462 323.034C729.236 324.237 726.597 324.84 723.545 324.84ZM727.703 316.776C728.795 316.776 729.866 316.573 730.916 316.167C731.966 315.762 732.911 315.216 733.751 314.529C734.591 313.843 735.256 313.066 735.746 312.198C736.235 311.33 736.495 310.434 736.523 309.51V303.126L732.071 303.168C730.055 303.196 728.165 303.441 726.401 303.903C724.637 304.365 723.215 305.114 722.138 306.15C721.06 307.186 720.521 308.586 720.521 310.35C720.521 312.366 721.214 313.941 722.6 315.075C723.986 316.209 725.687 316.776 727.703 316.776Z" fill="#2C5984"/>
<path d="M776.97 324.461C773.133 324.461 770.172 323.972 768.087 322.991C766 322.012 764.559 320.639 763.761 318.875C762.963 317.111 762.564 315.067 762.564 312.743V289.097H755.508V280.571H762.942L766.05 267.467H774.786V280.529H784.446V289.097H774.786L774.87 312.239C774.87 313.304 775.002 314.095 775.269 314.612C775.535 315.131 775.955 315.467 776.529 315.62C777.103 315.774 777.837 315.851 778.734 315.851H784.572V323.411C783.984 323.663 783.102 323.901 781.926 324.125C780.75 324.349 779.097 324.461 776.97 324.461Z" fill="#2C5984"/>
<path d="M806.115 324.84C803.371 324.84 800.886 324.321 798.66 323.286C796.434 322.25 794.677 320.745 793.389 318.771C792.101 316.797 791.457 314.396 791.457 311.568C791.457 306.809 793.235 303.189 796.791 300.711C800.347 298.233 805.961 296.952 813.633 296.868L819.093 296.784V294.18C819.093 292.192 818.512 290.659 817.35 289.581C816.188 288.504 814.375 287.979 811.911 288.006C810.147 288.034 808.46 288.454 806.85 289.266C805.24 290.078 804.127 291.492 803.511 293.508H793.305C793.473 290.372 794.39 287.789 796.056 285.759C797.722 283.729 799.969 282.217 802.797 281.223C805.625 280.229 808.859 279.732 812.499 279.732C816.923 279.732 820.479 280.285 823.167 281.391C825.855 282.497 827.808 284.079 829.026 286.137C830.244 288.195 830.853 290.639 830.853 293.466V324H820.605L819.597 316.524C818.113 319.66 816.258 321.83 814.032 323.034C811.806 324.237 809.167 324.84 806.115 324.84ZM810.273 316.776C811.365 316.776 812.436 316.573 813.486 316.167C814.536 315.762 815.481 315.216 816.321 314.529C817.161 313.843 817.826 313.066 818.316 312.198C818.806 311.33 819.065 310.434 819.093 309.51V303.126L814.641 303.168C812.625 303.196 810.735 303.441 808.971 303.903C807.207 304.365 805.786 305.114 804.708 306.15C803.63 307.186 803.091 308.586 803.091 310.35C803.091 312.366 803.784 313.941 805.17 315.075C806.556 316.209 808.257 316.776 810.273 316.776Z" fill="#2C5984"/>
<path d="M861.305 324V263.268H903.01L902.968 273.6H873.61V288.342H899.104V298.506H873.526V313.542L903.431 313.584V324H861.305Z" fill="#2C5984"/>
<path d="M909.266 324L925.939 301.362L910.693 280.572H923.545L932.575 292.752L941.521 280.572H954.374L939.001 301.362L955.717 324H942.865L932.491 309.888L922.117 324H909.266Z" fill="#2C5984"/>
<path d="M962.438 337.524V280.572H974.744L974.786 286.83C975.429 285.795 976.22 284.85 977.159 283.995C978.096 283.142 979.139 282.393 980.288 281.748C981.435 281.104 982.682 280.607 984.025 280.257C985.37 279.907 986.783 279.732 988.268 279.732C991.487 279.732 994.357 280.523 996.877 282.105C999.397 283.688 1001.38 286.123 1002.82 289.413C1004.26 292.703 1004.98 296.883 1004.98 301.95C1004.98 307.215 1004.21 311.533 1002.65 314.907C1001.1 318.281 998.963 320.78 996.247 322.404C993.531 324.027 990.465 324.84 987.049 324.84C985.649 324.84 984.333 324.651 983.102 324.273C981.869 323.895 980.728 323.37 979.679 322.698C978.628 322.026 977.69 321.249 976.864 320.367C976.038 319.485 975.317 318.526 974.702 317.49V337.524L962.438 337.524ZM984.109 315.852C986.769 315.852 989.002 314.746 990.809 312.534C992.614 310.322 993.518 306.837 993.518 302.076C993.518 297.849 992.657 294.552 990.935 292.185C989.212 289.819 986.937 288.636 984.109 288.636C980.945 288.636 978.586 289.917 977.033 292.479C975.478 295.041 974.702 298.24 974.702 302.076C974.702 304.484 975.044 306.738 975.73 308.838C976.416 310.939 977.453 312.633 978.838 313.92C980.225 315.208 981.981 315.852 984.109 315.852Z" fill="#2C5984"/>
<path d="M1027.29 324.756C1024.09 324.756 1021.56 324.378 1019.68 323.622C1017.81 322.866 1016.42 321.865 1015.53 320.619C1014.63 319.373 1014.06 317.987 1013.8 316.461C1013.55 314.936 1013.43 313.389 1013.43 311.82V261.588H1025.44V310.308C1025.44 311.904 1025.78 313.199 1026.47 314.193C1027.15 315.187 1028.45 315.796 1030.35 316.02L1032.41 316.146V323.706C1031.57 323.986 1030.72 324.231 1029.85 324.441C1028.98 324.651 1028.13 324.756 1027.29 324.756Z" fill="#2C5984"/>
<path d="M1060 324.84C1055.75 324.84 1052.04 323.931 1048.9 322.11C1045.75 320.29 1043.31 317.715 1041.59 314.382C1039.87 311.05 1039 307.103 1039 302.538C1039 297.975 1039.87 293.984 1041.59 290.568C1043.31 287.152 1045.75 284.492 1048.9 282.588C1052.04 280.685 1055.76 279.732 1060.05 279.732C1064.33 279.732 1068.04 280.671 1071.18 282.546C1074.31 284.422 1076.73 287.061 1078.44 290.463C1080.15 293.865 1081 297.891 1081 302.538C1081 306.906 1080.17 310.764 1078.5 314.109C1076.84 317.455 1074.44 320.08 1071.32 321.984C1068.2 323.889 1064.43 324.84 1060 324.84ZM1060.05 315.726C1062.2 315.726 1063.94 315.096 1065.25 313.836C1066.57 312.576 1067.52 310.917 1068.11 308.859C1068.7 306.801 1068.99 304.554 1068.99 302.118C1068.99 299.822 1068.73 297.652 1068.19 295.608C1067.66 293.564 1066.74 291.912 1065.42 290.652C1064.11 289.392 1062.31 288.762 1060.05 288.762C1057.89 288.762 1056.15 289.357 1054.82 290.547C1053.49 291.737 1052.51 293.348 1051.9 295.377C1051.28 297.407 1050.97 299.654 1050.97 302.118C1050.97 304.386 1051.25 306.564 1051.81 308.649C1052.37 310.735 1053.31 312.437 1054.63 313.752C1055.94 315.068 1057.75 315.726 1060.05 315.726Z" fill="#2C5984"/>
<path d="M1089.4 324V280.572H1101.2V290.862C1101.9 288.65 1102.89 286.711 1104.17 285.045C1105.44 283.38 1106.99 282.077 1108.81 281.139C1110.63 280.201 1112.68 279.732 1114.98 279.732C1115.37 279.732 1115.74 279.753 1116.09 279.795C1116.44 279.837 1116.7 279.9 1116.87 279.984V291.66C1116.62 291.549 1116.32 291.479 1115.97 291.45C1115.62 291.423 1115.3 291.395 1115.02 291.366C1112.61 291.171 1110.56 291.24 1108.85 291.576C1107.14 291.912 1105.75 292.486 1104.69 293.298C1103.63 294.11 1102.86 295.104 1102.38 296.28C1101.9 297.456 1101.67 298.772 1101.67 300.228V324H1089.4Z" fill="#2C5984"/>
<path d="M1143.96 324.84C1139.65 324.84 1135.86 323.937 1132.6 322.131C1129.34 320.325 1126.8 317.771 1124.98 314.466C1123.16 311.162 1122.25 307.271 1122.25 302.79C1122.25 298.45 1123.08 294.537 1124.75 291.051C1126.41 287.565 1128.81 284.808 1131.95 282.777C1135.08 280.747 1138.88 279.732 1143.33 279.732C1147.75 279.732 1151.46 280.663 1154.46 282.525C1157.46 284.388 1159.72 286.977 1161.26 290.295C1162.8 293.613 1163.57 297.442 1163.57 301.782V305.1H1134.38C1134.38 307.312 1134.75 309.237 1135.48 310.875C1136.2 312.513 1137.26 313.773 1138.65 314.655C1140.03 315.537 1141.71 315.978 1143.67 315.978C1145.77 315.978 1147.6 315.53 1149.17 314.634C1150.74 313.738 1151.83 312.269 1152.44 310.224H1163.53C1163.03 313.305 1161.8 315.936 1159.84 318.12C1157.88 320.304 1155.5 321.971 1152.7 323.118C1149.9 324.266 1146.98 324.84 1143.96 324.84ZM1134.38 297.792H1152.11C1152.11 296.057 1151.78 294.468 1151.12 293.025C1150.46 291.583 1149.48 290.436 1148.18 289.581C1146.88 288.728 1145.25 288.3 1143.29 288.3C1141.41 288.3 1139.81 288.756 1138.48 289.665C1137.15 290.575 1136.13 291.759 1135.41 293.214C1134.7 294.67 1134.36 296.196 1134.38 297.792Z" fill="#2C5984"/>
<path d="M1172.43 324V280.572H1184.24V290.862C1184.94 288.65 1185.92 286.711 1187.2 285.045C1188.47 283.38 1190.02 282.077 1191.84 281.139C1193.66 280.201 1195.72 279.732 1198.01 279.732C1198.4 279.732 1198.77 279.753 1199.12 279.795C1199.47 279.837 1199.73 279.9 1199.9 279.984V291.66C1199.65 291.549 1199.35 291.479 1199 291.45C1198.65 291.423 1198.33 291.395 1198.05 291.366C1195.65 291.171 1193.59 291.24 1191.88 291.576C1190.17 291.912 1188.79 292.486 1187.72 293.298C1186.66 294.11 1185.89 295.104 1185.41 296.28C1184.94 297.456 1184.7 298.772 1184.7 300.228V324H1172.43Z" fill="#2C5984"/>
</g>
<defs>
<clipPath id="clip0_841_2">
<rect width="1420" height="342" fill="white" transform="translate(0.835938 0.773438)"/>
</clipPath>
</defs>
</svg>
