<svg xmlns="http://www.w3.org/2000/svg" viewBox="0 0 90 90"><defs><style>.cls-1{fill:#207ba9;}.cls-2{fill:#43a6dd;}.cls-3{fill:#badefc;}</style></defs><title>water-waves</title><g id="water-waves"><path class="cls-1" d="M16,82.27a10.25,10.25,0,0,0,7.14-3.41c2.22-2.27,4.73-3.61,7.35-3.61s5.12,1.34,7.35,3.61A10.27,10.27,0,0,0,45,82.27a10.27,10.27,0,0,0,7.14-3.41c2.23-2.27,4.73-3.61,7.34-3.61s5.12,1.34,7.36,3.61A10.24,10.24,0,0,0,74,82.27a10.25,10.25,0,0,0,7.14-3.41A13.09,13.09,0,0,1,85,76.07v-22a13.09,13.09,0,0,0-3.89,2.79A10.26,10.26,0,0,1,74,60.31a10.24,10.24,0,0,1-7.13-3.41c-2.23-2.27-4.73-3.61-7.36-3.61s-5.11,1.34-7.34,3.61A10.27,10.27,0,0,1,45,60.31a10.27,10.27,0,0,1-7.14-3.41c-2.23-2.27-4.73-3.61-7.35-3.61s-5.13,1.34-7.35,3.61A10.25,10.25,0,0,1,16,60.31,10.26,10.26,0,0,1,8.89,56.9,13.05,13.05,0,0,0,5,54.1v22a13,13,0,0,1,3.89,2.79A10.26,10.26,0,0,0,16,82.27Z"/><path class="cls-2" d="M16,60.31a10.25,10.25,0,0,0,7.14-3.41c2.22-2.27,4.73-3.61,7.35-3.61s5.12,1.34,7.35,3.61A10.27,10.27,0,0,0,45,60.31a10.27,10.27,0,0,0,7.14-3.41c2.23-2.27,4.73-3.61,7.34-3.61s5.12,1.34,7.36,3.61A10.24,10.24,0,0,0,74,60.31a10.26,10.26,0,0,0,7.14-3.41A13.09,13.09,0,0,1,85,54.1v-22a13.09,13.09,0,0,0-3.89,2.79A10.26,10.26,0,0,1,74,38.35a10.24,10.24,0,0,1-7.13-3.41c-2.23-2.27-4.73-3.61-7.36-3.61s-5.11,1.34-7.34,3.61A10.27,10.27,0,0,1,45,38.35a10.27,10.27,0,0,1-7.14-3.41c-2.23-2.27-4.73-3.61-7.35-3.61s-5.13,1.34-7.35,3.61A10.25,10.25,0,0,1,16,38.35a10.26,10.26,0,0,1-7.14-3.41A13.05,13.05,0,0,0,5,32.14v22A13.05,13.05,0,0,1,8.89,56.9,10.26,10.26,0,0,0,16,60.31Z"/><path class="cls-3" d="M16,38.35a10.25,10.25,0,0,0,7.14-3.41c2.22-2.27,4.73-3.61,7.35-3.61s5.12,1.34,7.35,3.61A10.27,10.27,0,0,0,45,38.35a10.27,10.27,0,0,0,7.14-3.41c2.23-2.27,4.73-3.61,7.34-3.61s5.12,1.34,7.36,3.61A10.24,10.24,0,0,0,74,38.35a10.26,10.26,0,0,0,7.14-3.41A13.09,13.09,0,0,1,85,32.14V8.54a12.88,12.88,0,0,0-3.89,2.79c-2.17,2.15-4.6,3.42-7.14,3.42s-5-1.27-7.13-3.42-4.73-3.6-7.36-3.6S54.37,9,52.14,11.33,47.53,14.75,45,14.75s-5-1.27-7.14-3.42-4.73-3.6-7.35-3.6S25.39,9,23.17,11.33A10.3,10.3,0,0,1,16,14.75c-2.54,0-5-1.27-7.14-3.42A12.84,12.84,0,0,0,5,8.54V32.14a13.05,13.05,0,0,1,3.89,2.79A10.26,10.26,0,0,0,16,38.35Z"/></g></svg>